<svg id="Layer_1" data-name="Layer 1" xmlns="http://www.w3.org/2000/svg" viewBox="0 0 2500 2500"><defs><style>.cls-1{fill:#f9dc3e;}</style></defs><title>babel</title><path d="M1714.55,885.41l-.56-5.36-8.68.74.55,5.35Zm58.34,140.32.19,3,6.09-.55c-.19-1.85.55-4.8,1.85-8.49l-.56-5.36c-2.58.19-5.17,4.06-7.57,11.45Zm-227.66,176.7c-.37-5-15.88-24.37-46.53-58.53-.55-6.27,10-15.69,31.57-28.06l61.67-53.73c13.85-17.54,22-46,24.38-85.49l-.74-9c-2.4-27.32-22.15-49.3-59.63-66.1Q1522.71,879,1436.3,876.73q-71.46,6.09-186.48,51.14a764.59,764.59,0,0,1-72,45.42l.37,4.62a17.13,17.13,0,0,0,7.2-3.14c3.14-.37,5,1.11,5.17,4.06l4.61-2.4,2.22-.19.19,2c.19,2.4-16.44,15.51-50,39l2.59,4.8-2.22.19-5.54-2c.19,1.66-2.21,2.77-6.83,3.14l.19,2,5.36,6.65c-1.66.19-4.25-.55-7.75-1.85-7.76.74-15.33,4.8-22.9,12.55l3.14-13.66q16.89-72.84,23.08-128.88l-.55-2.4a93.74,93.74,0,0,1-22.34-20.86c.19-5.72.19-9,0-9.79l-.55-2-2.22.56q-36.56,54.84-140.88,187.22-79.48,94.17-82,104.69c-21.6,22.34-31.94,35.82-30.83,40.43-5.72,3.69-8.13,7.38-7.2,11.45-1.66.37-2.77-.18-3.14-1.85-9.23,15-22.9,24.56-41.17,28.8l-19.2,4.43c-2.58.55-3.88,2.4-3.69,5.54l.55,2.4,7.2-1.67.56,2-16.25,6.28-28.8,6.65L731,1263c-2.22,2.22,12-.18,6.46,1.11l-18.83,4.43c-11.45,2.58-17.72,1.66-18.83-3l-2.22.55a10.84,10.84,0,0,1,.19,4.8l-1.11-4.61-15.14,3.51q-1.66-10.52-61.3-76.44c-.74-8.5,13.29-20.87,41.91-36.93L743,1085.37q27.14-34.89,32.31-111.89l-1.11-12c-3.14-36.19-29.36-65.36-78.66-87.89-29.17-19.76-81.61-30.28-157.31-31.94q-94.17,8-245.57,66.66-41.54,30.18-94.72,59.82l.55,6.28c2.4-.19,5.54-1.47,9.41-3.69,4.06-.37,6.28,1.47,6.65,5.17l6.27-3.51,3.14-.19.19,3c.19,3-21.79,20.13-66.28,51.51l3.51,5.54-3.13.19-6.84-2.4c.19,1.85-3,3.14-9.41,3.69l.37,3.33,7.39,8.13c-2.4.19-5.72-.56-10-2-14.4,1.29-28.43,11.63-42.28,31.21l3.51,5.54c12-11.08,19-16.62,21-16.8l.74,9c-2,.19-5.17,1.47-9.41,3.69l7.57,11.45a250,250,0,0,1,48.19-40.44c8.68,2.22,13.29,5,13.48,7.94l6.65-.55q71.46-52.9,141.44-76.44l.55,6.27q-13,19.39-17.72,19.94a20.3,20.3,0,0,0,4.61,11.64q1.11,11.91-63.52,160.45Q108.11,1521.12,8.31,1686.37q.27,3.32,3.88,8.86c16.43-3.88,26.77-7.94,31.2-11.82l3.51-.37.55,6.28,6.09-.56,6.28-3.51c.19,1.85,2.22,2.77,6.46,2.4l.56,6.28c.55,6.09-3,15.32-10.34,28.07-6.65,7.57-13.85,23.45-21.42,47.64l.18,3,6.09-.56q39.89-44.59,60.56-87.33,116.32-34.06,177.62-67c41.18-3.51,72.56-14.4,94-32.31l-.37-3.32-15.51,4.61-3.51.37-.37-3.33c30.28-4.61,51.15-11.26,62.78-20.49q88.35-68.14,133.5-96.57,92.78-68.13,120.38-132.75,5.19-1.13,10.34-2.4c8.68-.37,13.48-.55,14.77-.92-.37-1.66.37-2.58,2-3,13.85-1.47,7.2.92,16.06-1.11l23.26-5.35c-1.47.37-2,1.11-1.66,2.58l3.51-2.22a5.46,5.46,0,0,1-1.85-.37l3.88-.92-1.85,1.11a22.82,22.82,0,0,0,8.5-.56l1.66,6.83-105.8,168.21-23.45,29.36-11.45,38.4,2.22-.55,11.45-4.8-3.69,15,1.11,4.43,3.13,3.88c-1.47.37-2,1.29-1.66,3l.56,2.4,4.8-1.11q10.52-9.14,8.86-16.62c7.57,1.29,12.55,1.85,15.14,1.11l.55,2.4c-4.61,1.11-7,4.8-7.39,11.08l.56,2.4,2.58-.56c38.41-41.91,132.57-185.38,208.09-282.68q-3.6-15.78,118.16-43.95l2.59-.55q4.43,19.11-18.83,92.5c-10,29.54-14.77,45.79-14,48.37-12.92,39.33-19,60.56-18.28,63.89l-28.8,94.35a861.63,861.63,0,0,0-42.83,152.7c1.66-.37,4.24-.19,7.94.74l4.06-3.51c.37,1.67,1.48,2.22,3.14,1.85l-1.66-6.83,12.55-.37c3.69-.92,6.83-5.54,9.42-14-.56-12.74,2-19.57,7.75-21,7.75-30.28,12.55-45.42,14.22-46q10.8-45.14,16.06-51.51c10.9-39.14,18.83-59.27,24-60.56l1.11,4.8-7.94,20.49q-20.77,92.23-42.09,145.68l4.06,17.72,2.58-.55q51.51-110.79,148.26-438.7c1.85-19.2,11.08-34.16,27.51-44.68l-3.7-3.88-.55-2c7.39-1.66,12.55-4.61,15.51-8.68-.37-1.67-6.83-4.06-19.38-7.39L1107.65,1054c7-6.28,11.07-9.6,12.37-9.6l.56,7a17,17,0,0,0-7.2,3.13l6.09,8.68a197.4,197.4,0,0,1,36.19-31c6.65,1.85,10,4.06,10.34,6.28l4.8-.37q54.84-40.16,107.64-57.61l.37,4.61q-9.69,14.68-13.3,15a20.22,20.22,0,0,0,3,8.86q.84,9.14-47.82,122-111.34,261.72-187,387.37c.19,1.66,1.29,3.88,3.33,6.83,12.37-3,20.31-6.09,23.45-9l2.22-.19.37,4.62,5.17-.37,4.62-2.4q.27,1.94,5,1.67l.37,5c.37,4.43-2.21,11.45-7.94,21-5.35,5.73-10.89,17.73-16.8,36l.19,2.4,4.8-.37q30.19-33.79,46-66.47c58.9-17.35,103.76-34.16,134.79-50.78,31.57-2.77,55.39-10.89,71.64-24.56l-.19-2.4-12,3.51-2.58.19-.19-2.4c22.9-3.32,39-8.49,47.64-15.32,44.68-34.35,78.47-58.9,101.37-73.3,71.27-51.88,104.5-101.74,100.44-149.56Zm-12.18,3.14,1.66,18.65c-2.22,4.62-4.61,7-6.83,7.2l-2.77-31.76c5.17,1.85,7.75,3.69,7.94,5.91ZM135,1055.28l-3.14.18-.55-5.72,12.74-1.11.19,3c-2,.19-5.17,1.29-9.23,3.7ZM72.75,1677.69c-7.39-3.32-14-4.61-19.76-4.06l-.74-9c-.37-3.51,1.67-5.91,6.09-6.83,4.06-.37,6.46,2.59,6.83,8.5q16.07-19.67,17.73-19.94l6.83,2.77C87.52,1667.54,81.8,1677,72.75,1677.69ZM737.63,982.16c-3.14.37-9.42-9.41-18.47-28.8l-.55-5.72c5.91-.55,12,9,18.46,28.8Zm-8.87-68.87-2.58,6.09-90.29-37.67Q726.18,884.77,728.76,913.29ZM347.49,1240.66l-12.74,1.11-.56-5.73,12.74-1.1ZM337.15,1044l3.14-.19.74,9c-3,.19-6.83,4.61-11.63,13.11l-.56-6.28c5.73-6.83,8.68-12,8.31-15.69Zm-26.77,63.14,1.11,12-3.14.19-1.11-12Zm-14,22.53,6.09-.56c-.55,10-3.32,15.33-8.31,15.69L291,1145C294.87,1138.37,296.71,1133.19,296.34,1129.69Zm-10.52,31.39,3.51-.37.19,3-5.72,9.6-6.09.55-.19-3c6.09-.55,8.86-3.69,8.31-9.79Zm-10.34,28.25-1.85,15.14-3.14.19-1.29-15ZM171.9,1483.82c-4.06,20.68-8.5,31.2-13.11,31.57l-.19-3c-1.11-10.16,3.33-19.76,13.3-28.62Zm-19,41.17.19,3c.37,4.06-1.48,6.46-5.54,6.65l-.18-3Q146.79,1526.38,152.88,1525Zm-5.54,85.49,9.6-.92.37,3.33c-2.4.18-5.54,1.47-9.41,3.69l-6.09.55c-.37-3.13,1.66-5.54,5.54-6.65h0Zm273.26-84.38q-80.87,39.88-95.09,54.1-87.52,30.47-86.78,37.85c-51.88,20.5-86,35.64-102.47,45.05-3.88.37-9.42-1.11-16.8-4.43-.92-10.52,3.88-19,14-25.84a54.49,54.49,0,0,1,26,4.06c9.6-5,26.41-10.52,50.22-16.43l-.56-6.28-19.2,1.67c2.4-3.33,20.86-12,55.57-26l9.6-.92.19,3c-16.44,1.47-25.48,6.28-27.51,15,.37,3.88,2.59,5.54,6.65,5.17,12.37-7.76,18.46-12.37,18.28-13.67q35.18-6.64,194.42-101.73l.56,5.72c.19,2.77-8.86,10.52-27.14,23.82Zm-162.85,53.54a62.87,62.87,0,0,0,39.88-18.46c4.43-.37,6.83,1.29,7,5.17-7.57.74-22.16,7-43.39,19.2l-3.14.19-.37-6.09Zm262.74-201.81-81.43,64.44q-90.84,59.55-97.67,60-144.57,79.49-179.65,82.53l-3.51.37q4.43-16.33,128.88-263.66,54.84-4.71,172.64-51.14l19.2-1.67c39.7-3.51,69.42,4.25,89,22.71l1.1,12q-22.16,63.71-48.56,74.41Zm-159.16-89.55,13.11-1.11.18,3-13.11,1.11Zm184.08-31.21,9.6-.92c8.86,4.25,13.48,7.94,13.85,11.26l.18,3C560.56,1271.12,552.62,1266.69,545.42,1257.09Zm26-148.26q-12.74,15.23-69.79,51.88c-12.55,1.11-59.27,19.2-140.14,54.65a25.59,25.59,0,0,0-12.92-2.21l-.56-5.73c-.92-11.63,4.25-26.22,15.69-43.94,6.28-33.24,13.11-52.26,20.68-56.87L451.81,955q-1.11-14.13,43.2-21.61l9.6-.92.74,8.68c29-4.43,47.08-7,54.1-7.57,53.54-4.61,81.43,6.28,83.64,32.31l6.09-.56L647.9,950l6.65-.56c15.69,8.68,24.19,19.2,25.3,31.57.74,8.5-3.88,19-13.67,31.58-4.06.37-6.46-2.59-6.83-8.5l-6.65.56-1.47,18.46q-40.72,60.93-59.09,62.59C581.05,1101.07,574.22,1108.64,571.46,1108.82ZM612.81,1215c-5.54-3.7-10-5.36-13.29-5.17l-.74-9,6.09-.55,13.48,7.94c.55,4.24-1.29,6.46-5.54,6.83Zm42.84,50.77c5.91,2.4,9.42,5,10.16,7.39l-3,.74.19.19a6.56,6.56,0,0,0-1.85.37l-4.43,3.51Zm4.06,25.48-.55-2.4,7.75-1.85.55,2.4Zm18.65,20.86c7.94-1.29,11.82-1.85,26.59-5.17l.56,2.4-28.07,6.46A35.69,35.69,0,0,0,678.36,1312.11Zm27.33,11.63c-11.82,1.11-9.23-.37-28.07,3.88l-.56-2.4,23.45-7.57,11.26-2.58,1.1,4.43C707.9,1320.6,711.6,1320.6,705.69,1323.74Zm24.93-5.91c-2.77.74-5-.55-6.28-3.69l7.2-1.67c3.13-.74,5.17.56,5.91,3.7l-6.83,1.66Zm67.57-72.75-.55-2.4,11.63-2.77,1.11,4.43Zm72.2,442.76c.74-3.33.92-5.72.55-7.39l2.59-.55c3.13-.74,5,.37,5.72,3.33l.55,2.4-9.41,2.22ZM921,1264.1l-5.17-.92a146.61,146.61,0,0,1-21,7l-4.8,1.11c-2.77.74-5-.37-6.09-3.33l33.79-7.75,11.08-5.17,3.69,4.25c-5.36,1.11-9.23,2.77-11.45,4.8Zm26-8.31-.55-2.4c1.66-.37,3.88-1.66,6.28-4.06l24-5.54.56,2.4c-12.74,3.14-22.9,6.28-30.28,9.6Zm3.7-48.56c-1.67.37-3.88,1.85-6.65,4.06-.37-1.66-3.69-1.66-10-.18-1.1-4.62,16.62-11.08,53.36-19.58l5.17-1.11,1.11,4.43c-25.85,7.57-40.25,11.82-43,12.37Zm64.62-69.79c-2.59,29.36-12.92,46-31.21,50.22l-.55-2.4-16.25,6.27-7.2,1.67a18.13,18.13,0,0,1-10-.19l-1.47-6.46q-.83-3.6,70.53-97.3l5.54.93c2,8.49-1.11,24.18-9.41,47.27Zm114.29-97.86-2.21.19-.37-4.61,9.6-.92.19,2.4a31.1,31.1,0,0,0-7.2,3Zm-47.08,472.86c-5.54-2.59-10.53-3.69-14.77-3.33l-.56-7q-.28-3.6,4.43-5c3.14-.37,5,1.85,5.35,6.65,7.94-10.16,12.37-15.33,13.3-15.33l5,2c-1.85,14-6.09,21.42-12.74,22Zm504.8-528.07c-2.4.19-7-7.2-14.22-22.16l-.37-4.61c4.61-.37,9.41,6.83,14.21,21.6l.37,5.17Zm-6.65-52.81-2.22,4.8-68.32-28.62C1555.76,909.23,1579.39,917.17,1580.69,931.57ZM1291,1180.28l-9.6.92-.37-4.62,9.6-.74.37,4.43Zm-7.94-149.37,2.58-.19.55,7q-3.6.28-8.86,10l-.37-4.61q6.37-8,6.09-12.19Zm-20.13,48,.74,9-2.58.19-.74-9ZM1252,1096.08l4.8-.37q-.83,11.63-6.09,12.19l-2.58.18c2.77-5.17,4.06-9.23,3.88-12Zm-7.75,23.63,2.22-.19.18,2.4-4.24,7.39-4.8.37-.18-2.4c5-.37,7.2-3,6.83-7.57Zm-7.75,21.42-1.67,11.82-2.22.19-.92-11.63,4.8-.37Zm-78.84,224q-4.71,23.27-10,23.82l-.19-2C1147,1379.13,1150.29,1371.75,1157.68,1365.1Zm-14.58,31.21.18,2c.37,3.32-1.1,5.17-4.43,5.35l-.19-2.4q-.28-3.6,4.43-5Zm-4.06,65,7.38-.55.19,2.4a21.25,21.25,0,0,0-7.2,2.77l-4.8.37q-.28-3.87,4.43-5Zm207.35-64.07c-40.62,20.13-64.81,33.79-72.38,40.81-44.32,15.51-66.28,25.11-65.92,29-39.33,15.69-65.18,27-77.36,34.16-3,.19-7.2-.92-12.74-3.51-.74-7.94,3-14.4,10.71-19.2a41.69,41.69,0,0,1,19.76,3c7.39-3.69,20.13-7.75,38.22-12.37l-.37-4.62-15.14,1.11c1.85-2.58,16.06-9.23,42.47-19.94l7.38-.55.19,2c-12.55,1.11-19.57,4.8-21,11.45.19,3,2,4.43,5.17,4.06,9.23-6.09,13.66-9.6,13.66-10.71q26.59-4.71,147.53-77.36l.37,4.61c.19,2-6.65,7.94-20.49,18.1Zm-123.71,40.62a49.59,49.59,0,0,0,30.65-13.85c3.13-.37,5,1.11,5.17,4.06-5.54.55-16.43,5.17-32.87,14l-2.58.19-.37-4.43Zm199.78-153.43L1361,1333.9q-69,45.14-74.78,45.61-109.67,60.37-136.45,62.59l-2.58.19q3.32-12.47,98-200.15,41.26-3.6,130.91-39.14l15-1.29c30.09-2.58,52.62,3.33,67.39,17.54l.74,9c-11.26,31.76-23.45,50.41-36.74,56.13Zm-120.75-67.95,9.6-.92.19,2.4-9.6.92Zm139.77-23.82,7.39-.55c6.83,3.32,10.34,6.28,10.52,8.68l.19,2C1453.1,1203.36,1447,1200,1441.47,1192.65Zm19.38-112.44c-6.46,7.75-24,21-52.62,39.51q-14.41,1.38-106.35,41.17a24.21,24.21,0,0,0-9.79-1.29l-.37-4.62c-.74-8.86,3.14-19.94,11.63-33.42,4.8-25.48,10.16-39.7,15.69-43l51.51-115.21c-.55-6.83,10.34-12.37,32.5-16.62l7.38-.55.56,7q32.68-5.27,41-6.09c40.62-3.51,61.86,4.61,63.52,24.56l4.8-.37-.92-11.08,4.8-.37c11.82,6.46,18.09,14.22,18.83,23.45.55,6.65-2.77,14.77-9.79,24.19-3.13.37-5-1.85-5.35-6.65l-4.8.37L1521.6,1015c-20.49,31.21-35.45,47.27-44.87,48-8.31,11.26-13.48,17-15.88,17.17Zm21.61,76.81-.56-7,4.8-.37,10.34,6.27q.28,4.43-4.43,5c-4.43-2.77-7.75-4.06-10.15-3.88ZM623,1605.5l-4.8,1.11-4.06,3.51c.74,3,2.58,4.06,5.72,3.33s4.43-2.58,3.7-5.54Zm-18.28-36.37.55,2.4c3.14-.74,4.43-2.58,3.69-5.54l-.55-2.4c-3,.74-4.25,2.59-3.69,5.54Zm130-309.27,5.54-1.29-1.11-4.8-5.54,1.29,1.1,4.8Zm1675.41,140.7c-56.13,12.55-63.15,10.34-75,11.26l.37,4.62,5.17-.37,2.77-.19-.74-.55,6.09-2.4c55.58-6.09,62-3.88,61.48-10.16Zm-302.26,40.06.37,4.62h.74l-.37-4.62h-.74Zm-34.71-121.67-5-1.66c-4.06,10.89-6.09,17.35-5.91,19.2l.19,2C2066.28,1338.33,2069.79,1331.68,2073.12,1318.94Zm348.41,80.69.37,4.61,8.12,1.47-.37-4.61-8.13-1.47Zm-382,46.71-12.55-1.47-2.22,4.8.19,2.4,74.78-6.28-.37-4.61-59.82,5.17Zm-34-163.77-.18-2.4-2.59.19-4.61,3,2.58,4.43c3.51-.37,5.17-2,4.8-5.17ZM2457,1365.66l3.51-.37c2-.19,3-1.85,2.77-4.8l-2-4.43c-12.74,1.11-18.65,1.67-29,7.39l-.19-2.4-15.32,1.47c-.37-4.61-1.66-7-3.69-6.83l-7.94.74c-9.23.74-13.67.37-18.28,3.88-.19-1.66-.74-2.4-1.66-2.4l-8.86.74-5.17,3c-.19-1.66-.74-2.4-1.67-2.4l-3.13,2.77-.19-2.4-12.37-.92-3,.19.37,4.61,6.28,1.66,5.91-.37a10.7,10.7,0,0,0,6.83,1.47l5.17-2.58.18,2c-29,7.2-28.8,5.91-48.75,9.23-2.21-1.48-3.88-2.22-5-2l-.37.37c-2.22-.19-3.51-1.66-3.69-4.06l10.34-1.29c.74,0,1.29.74,7,1.85,8.31-4.06,8.68-5.73,13.11-6.09l-.37-4.62c-28.43,5.54-17,1.85-52.62,5l-1.66.19-.37-4.61c45.79-5.54,30.47-2.4,46.16-6.83.19,1.66.74,2.4,1.66,2.4a10.73,10.73,0,0,1,6.28-3.13l3.14-.19c16.06-1.29,21.42,1.85,53.17-7l.19,2,5.17-2.59,4.8-.37c-.37-4.62,6.65-5.36,9-5.54l-.37-5c-55.76,11.26-70.35,8.13-85.85,12.56l-.19-2c-14.58,2.58-15.14,1.47-18.83,1.66a9.81,9.81,0,0,0-4.62,3c-.18-1.66-.74-2.4-1.85-2.4a3.77,3.77,0,0,0-.92.19l-47.27,7.75c-.19-1.29-.74-2-1.85-1.85-24.56,5.17-17.91,6.09-50.78,9a15.4,15.4,0,0,0-6.09,2.59c-.19-1.29-.92-2-2.58-1.85l-20.13,1.67-13.48,3.32c-.19-1.29-.92-2-2.59-1.85a107.59,107.59,0,0,1-19.57,3.7h-.37c-3.32.37,1.67-.92-.92-2l-4.06,2.4c-5.91.56-2.77-.37-23.08-.19-35.63,4.43-31.76,5-35.63,5.17l-13.3-.92a1.83,1.83,0,0,1-2,2.22c-15.14-2-22.9-4.43-23.08-7.2q3-21.6,10.53-22.16l2.58-.18-2.22,4.8,2.59-.19c4.8-2.58,7-5,6.83-7.2l-.37-5-4.8.37-.37-4.61a16.61,16.61,0,0,1,1.48-9.23l10.89-17.54.37,4.61,5.17-.37-.37-4.61-3-4.25c3.88-3.32,6.83-5.17,9.23-5.35l-.18-2.4-7,.56-.56-7c14-29.17,20.68-46.16,20.31-51l5,2c3.14-.19,4.61-2,4.43-5.36l-4.8.37-.19-2a17.64,17.64,0,0,1,1.85-9.79c7.57-7.94,11.08-15.88,10.34-24.19,1.48-.19,2.22.56,2.4,2.22,6.46-3.69,11.45-13.48,15.14-29.73q17.18-31,48.93-123.89c40.62-109.31,39-120.94,44.68-146.79l-4.8.37a16.7,16.7,0,0,1-1.85,9.42c-3.33-1.29-5.91-2-7.75-1.85l-.19-2c-.74-9.42,3.14-20.68,12-34l2.21-.19L2226,888l4.8-.37c-.18-1.11,1.11-7.39,3.7-19-.19-2.4-2-3.88-5.73-4.06l-4.61,3c-.37-3.33-.19-12,.37-25.85l-2.4.19c-4.06-4.06-6.09-7.39-6.28-10.16l-26.4,2.58a24.42,24.42,0,0,0-3-8.12c-.19-2.4,5.72-4.8,17.91-7.2l5.36,2,5-3c.18,1.66,1.1,2.4,2.95,2.22l5-3c.19,1.66,1.11,2.4,3,2.21l2.4-.18-.37-5.36c-3.69.37-13.48.37-29-.19l-5,3.33-.19-3q-185.84,15.23-211,17.54c-2.22.19-10.89,0-26.22-.37.19,2-1.66,3.14-5.35,3.51l-5.36-2.4-18.1,4.62c-4.25.37-11.45.18-21.42-.92a18.44,18.44,0,0,1-10.16,3.88c-2.22.18,26.4-1.48,53-3.33-2.77,2.22-7,3.51-12.92,4.06a17.74,17.74,0,0,1-10.53-1.85c-4.06,1.85-17.17,4.8-39.14,9.23l-5.36-2-86.41,13.29a21.57,21.57,0,0,0-11.63-1.85c-4.62.37-12.37,2-23.08,5l-41.73,17.35,3.14,5.17c2-.19,5-1.29,8.49-3.32l14.78,1.29-1.85,13.85C1729,903,1721,912,1718.79,923.45c-20.49,9-30.65,15.51-30.65,19.38l.19,2.4,3.14-.19,5.54-3,6.46,7.75.92,10.71q.55,5-103.21,217.69c-59.82,136.63-91.21,211.41-94.17,224.89-20.49,5.72-32.31,14-35.82,25.11.37,3.51,6.46,5.91,18.28,6.83l.56,5.35-5.36,8.86.92,10.71q.84,8.31,44.87,12.74c-.19-1.85.74-3,2.77-3.14q.84,10-5.54,38.77l3.14-.19c12.18-16.62,17.91-28.07,17.35-34.34l2.59-.19c3-.19,6.09,3.14,9.79,10.34q-5.54,2.22-38.77,88.26l3.14,5.17,3.14-.18q40.71-103,51.14-113.93,53.45-4.71,184.82-18.83l5.54-3.32c.19,1.85,1.29,2.77,3.33,2.58l5.72-.55,5.54-3.33c.18,1.85,1.29,2.77,3.32,2.58l66.28-5.72c17.54-1.47,25.85-6.83,25.11-15.88-.19-2.4,10.16-5.17,31-8.13,2-.19,5,.37,9,1.67-.19-1.67,10.34-3.33,31.39-5.17.56-11.08,4.06-17,10.34-17.54l-.56-5.36a91.67,91.67,0,0,0-20.31,4.61c-13.85-.74-22.71-1.85-26.41-3.14-3.69,2-6.46,3.14-8.49,3.33l-46.16,1.48-5.54,3q-.28-2.5-3.33-2.22l-2.58.19-5.91,3c-.19-1.67-5-3-14.59-4.25l-5.9,3.51-11.45.92-.19-3q89.18-9.69,88.07-24.18c3.88-.37,5.91,1.47,6.28,5.36l17.36-4.43-.56-5.36L1778.07,1369c.18,1.85-.74,3-2.77,3.14l-17.36-1.47a20.91,20.91,0,0,0-11.08,3.88l-6.46-2.4c-17.91,1.48-31.21,3.7-40.07,6.46a252.19,252.19,0,0,0-40.62.55l-31.94,2.77-14.77-1.66c-.74-9.41,17.54-55.76,55.21-138.85,10.9-28.07,20.86-45.61,30.47-52.25,2-.19,5,.55,9,2.21l22.71-7.75,11.63,1.85c19.57-1.66,42.28-7.2,68.32-16.8,6.46-.55,11.26-.18,14.77,1.29l17.36-4.06,51.7-4.43c22-1.85,45.79-6.65,71.64-14.59l-.55-5.35c-9.6.92-14.58-.74-15-4.62-.55-7.2-7.57-10.15-21-9l-.55-5.35,14.22-4.06,37.29-3.14-.56-5.35c-1.47.18-9,0-23.08-.56l-.56-5.72,14.4-1.29c3.88-.37,5.54-2.22,5.17-5.91-19.39.56-29.17-.37-29.36-3q-202.73,10-203.29,3.69c-2,.19-4.8,1.48-8.49,3.7l-3.51-5.54q53.73-114.1,63-115c.18,3-1.29,7.75-4.62,14.22l.19,2.4,5.72-.55c14.22-34,26.22-51.51,36.19-52.25,42.47-3.7-5.91-6.46,84.93-20.68,3.7,1.66,6.28,2.4,8.13,2.21q53.45-10.8,149-22.52l-.37-5.36-34,3.14-.37-5.35a18.46,18.46,0,0,0,10.16-3.88l.18,3c1.85-.19,4.43-1.48,7.76-3.7,5.91-.55,10.34,0,13.48,1.67a196.63,196.63,0,0,1,28.43-5.73l21.24-2c5.17-3.32,7.57-6.27,7.39-9l-.19-2.4a67,67,0,0,1-18.65-1.11c-.19-3,1.29-5,4.8-5.91l39.51-3.69,18.1-4.62c.18,2,1.11,2.77,2.58,2.77,1.85-.19,4.43-1.48,7.75-3.7.92.19,2,.19,3,.37a147,147,0,0,0-7.94,21.6l-5.17.37a22.51,22.51,0,0,0-3-9.42l-2.58.19c-48,133.68-69.42,195.9-113.74,298.56-8.13,26.22-15,40.81-20.86,43.95.19,3,2,4.43,5.17,4.06,1.1,12.92-1.85,25.66-9,38.22-20.5,59.09-34.16,91.4-41.18,97.3l4.61,27.88q.28,4.43-4.43,5l-4.8.37c-.74-7.76-3.51-11.45-8.5-10.89l-2.58.19a109.87,109.87,0,0,0-14.22,34.16l4.8-.37q9.7-6.36,8.86-15l9.6-.92,5.54,2c-4.43,7-6.46,12.56-6.09,16.8l2.59,4.43-6.28,14.77.19,2.4c5.54-.56,11.63,1.29,18.1,5.17,4.43-.37,9.23-2.4,14.58-5.91,5.54-.55,26.22-.74,61.86-.74l17.91-6.09c21.79-.19,25.3.37,44.13-1.29l7.75-.74,4.06-2.77.19,2.4c19.76-1.67,21-.37,36.56,1.47l.19,2.4-10.89.92.37,4.61a15.66,15.66,0,0,0,8.68-3.32c2.77-.19,4.43,1.29,4.61,4.61a65,65,0,0,0-15,3.33l-4.8-1.67c-7.57,2-5.91,2.59-11.08,3l-7.57-1.47a1.78,1.78,0,0,1-1.85,2.21c.18,3,1.85,4.43,4.61,4.25l7.75-.74,40.43-3.51,15.33-3.32c.19,1.29.74,2,2,1.85l7.38-2.77,13.85-1.11c10.71-.92,10.52-1.66,33.78-5.36-.18-1.47.37-2,1.48-2.21l.19,2c37.85-6.46,40.25-6.83,46.34-8.86l.55,1.11c9.42-2.21,4.06-1.66,6.65-3.51.19,1.66.74,2.4,1.66,2.4l6.65-.55-.37-5-13.48-.19-.18-.37c-.56.18-.93.18-1.48.37h-1.85v.37c-9,1.85-9.23.55-15.14,1.11l-33.79,1.85-.19-2.4,18.83-2.58,6.83-.56,3.88-2.77.18,2.4c26.59-2.22,36,4.43,159-21.79,6.65-.56,6.09-6.09,10.34-17.54a11.49,11.49,0,0,1-6.46-1.47c-10.15,3.88-15.51,2-35.08,5.17-1.67.19-3-1.29-3.51-4.25l-.19-2,18.83.55c3.51-.37,10.34-.92,20.5-6.65,0,1.67-3.7,2.59-1.48,2.4Zm-909.16,14.58-8.68.74c-.37-3.51,4.25-16.8,13.85-39.51l5.73-.55C1558.9,1346.27,1555.39,1359.38,1547.82,1380.24Zm10.52-42.09-.19-2.4c-.19-3,1.67-5,5.73-5.91l.18,2.4C1564.25,1335.74,1562.41,1337.77,1558.34,1338.15Zm115.4,89.18.19,2.4-14.4,1.29-.19-2.4,14.4-1.29Zm-17.36-1.48c.19,3-4.24,6.28-13.85,9.6l-17.72-1.29-5.72.55-.55-5.35,37.85-3.51Zm116.69-537.11-8.68.74-.18-3c-.19-3,1.47-5,5.17-5.91l3.14-.19,5.91,2.4C1778.62,886.33,1777,888.37,1773.08,888.74Zm132-25.85,2.77-.19.37,5.35-7.94.74C1900.11,865.84,1901.59,863.81,1905.1,862.89Zm-33.24,11.63L1858.75,873l-.19-2.4c17.17-1.48,22.9-3.33,33.42-6.28.19,2,2,2.77,5.35,2.4l.37,5.35-5.17.56a17.76,17.76,0,0,1-10.52-1.85,22.59,22.59,0,0,1-10.16,3.69Zm16.44,47.82-.19-2.4,21.23-2,.19,2.4ZM1911,903.87l-.19-3,10.34-.92.19,3Zm2.4-36.19-2.77.19,2.4-5.73,23.63-2.21.19,3C1930.76,863.44,1922.82,865.1,1913.4,867.69Zm12,51-.37-5.35,10.34-.92q5.27-.56,5.54,5l-15.51,1.29Zm62.59-85.3-13.3,3.7-2.4.18a135.75,135.75,0,0,1-24-.55c17.17-1.11,33.6-2.4,39.7-3.33Zm-14.22,59.09.19,2.4-18.28,1.67-.19-2.4Zm29.91,14.21c-.19-2.21-3.69-3.69-10.89-4.43l-18.28,5.17-14,.55c-3.14-2.22-4.8-3.69-5-4.8l16.25.92,36.56-5.91,18.65.74.19,3A104.79,104.79,0,0,0,2003.69,906.64Zm188.15-48.56c2.21.19,3.69.19,4.24.19a71,71,0,0,1,22-14.77c-6.65,29.17-17,50.78-31.2,64.81L2176.51,902c8.68-22,13.85-36.56,15.33-43.95Zm-31.76,54.47,2.58-.19c-3.51,6.65-6.65,10.15-9.23,10.34l-.55-7C2154.54,915.69,2156.94,914.58,2160.08,912.55Zm-20.5,48.93c5-19.94,9.79-31.2,14.22-34.16l.19,2.4c-2.59,18.47-6.65,28.25-12,29l.92,11.63c-4.43,6.28-6.46,11.08-6.28,14.77l-2.58.19-1.48-16.06c3-.37,5.36-3,7-7.75Zm-7.94,26.59c.19,2.77-1.66,9.23-5.35,19.2l-2.59.19-.55-7c3.51-8.13,6.46-12.19,8.49-12.37Zm-149,432.42-.19-2,4.8-.37.55,7C1985.23,1425.29,1983.38,1423.81,1982.65,1420.49Zm212.89,5.54c-.19-1.66-.92-2.4-2.58-2.22l-12,1.11-.19-2.4h1.11l28.43-2.4.19,2.4C2202.18,1422.89,2197.19,1424.19,2195.53,1426Zm-14.22-5.91c1.11.55.56,1.11,0,1.47C2180.76,1421.42,2180,1420.86,2181.31,1420.12Zm1.48-33.24-15.88,1.29-.19-2.4,14.4-1.29,12.56-3.14c.19,1.47.92,2,2.58,1.85,15-2.58,13.48-3.32,20.68-3.88,2.4-.19,3.88,1.29,4.06,4.25l-38.22,3.32Zm55.58-4.8c-8.86-.92-9.42-1.66-15.69-1.11l-.19-2,14.21-1.29.19,2c-1.47.19,3.88.55,1.48,2.4Zm1.11-2.58-.19-2,7.75-.74.19,2Zm17.17-1.48-.18-2c1.29-.18,3.13-1.1,5.54-3,3.88-.37,5.91,2.22,6.28,5.17l-11.64-.19Zm22-2.77-.19-2.4,9.42-.74.19,2.4Zm13.11-1.11c-.19-2.77.92-4.43,3.33-4.8l3.13,4.06a1.72,1.72,0,0,1,1.48-2.22l2.4,4.43-10.34-1.48Zm-139.4,60.2-.37-4.62-1.48.19.37,4.61Zm324.41-84c1.47-.92,2.21-1.85-1.29-2.4-1.67,1.85,1.85,2.4-1.85,2.58l.18,1.66c.37-.37,1.29-.92,2-1.47l-2,1.66v.19l-3.88,5,7.75-2.77h.93l-.37-4.62Zm13.48,10.53-1.48.19.37,4.61,10.89-.92c-.19-3-7.39-3.88-9.79-3.88Zm-16.8-8.13.19-.19v-.19a.65.65,0,0,0-.19.37Z"/><path class="cls-1" d="M1764.58,1011l.19,3,6.09-.55c-.19-1.85.55-4.8,1.85-8.5l-.55-5.35c-2.59.19-5.17,4.06-7.57,11.45Zm-58.34-140.32-.55-5.36L1697,866l.56,5.36Zm-169.31,317c-.37-5-15.88-24.37-46.53-58.53-.56-6.27,10-15.69,31.57-28.06l61.67-53.73c13.85-17.54,22-46,24.37-85.49l-.74-9c-2.4-27.33-22.16-49.3-59.64-66.1Q1514.4,864.27,1428,862q-71.46,6.09-186.48,51.15a765.71,765.71,0,0,1-72,45.42l.37,4.62a17.18,17.18,0,0,0,7.2-3.14c3.13-.37,5,1.11,5.17,4.06l4.62-2.4,2.21-.19.19,2c.19,2.4-16.43,15.51-50,39l2.58,4.8-2.22.19-5.54-2c.19,1.66-2.22,2.77-6.83,3.14l.19,2,5.35,6.65c-1.66.19-4.24-.55-7.75-1.85-7.75.74-15.33,4.8-22.9,12.55l3.14-13.66q16.9-72.84,23.08-128.88l-.56-2.4a93.72,93.72,0,0,1-22.34-20.86c.19-5.72.19-9,0-9.79l-.56-2-2.21.56q-36.56,54.84-140.88,187.22-79.49,94.17-82,104.69c-21.6,22.34-31.94,35.82-30.83,40.44-5.72,3.69-8.13,7.38-7.2,11.45-1.67.37-2.77-.19-3.14-1.85-9.23,15-22.9,24.56-41.18,28.8l-19.2,4.43c-2.58.56-3.88,2.4-3.69,5.54l.56,2.4,7.2-1.66.56,2-16.25,6.28-28.8,6.65-15.14.92c-2.22,2.22,12-.19,6.46,1.11l-18.83,4.43c-11.45,2.58-17.72,1.66-18.83-3l-2.22.55a10.77,10.77,0,0,1,.19,4.8l-1.11-4.61-15.14,3.51q-1.66-10.52-61.3-76.44c-.74-8.49,13.3-20.86,41.91-36.92l80.87-71.09q27.14-34.89,32.31-111.89l-1.11-12c-3.14-36.19-29.36-65.36-78.66-87.89-29.17-19.76-81.61-30.28-157.31-31.94q-94.17,8-245.57,66.66-41.54,30.18-94.72,59.82l.55,6.28c2.4-.19,5.54-1.47,9.42-3.69,4.06-.37,6.28,1.47,6.65,5.17l6.28-3.51,3.14-.19.18,3c.19,3-21.79,20.13-66.28,51.51l3.51,5.54-3.14.19-6.83-2.4c.19,1.85-3,3.14-9.42,3.69l.37,3.33,7.38,8.13c-2.4.19-5.72-.56-10-2-14.4,1.29-28.44,11.63-42.29,31.2l3.51,5.54c12-11.08,19-16.62,21-16.8l.74,9c-2,.18-5.17,1.47-9.42,3.69l7.57,11.45A250.25,250.25,0,0,1,160.82,1032c8.68,2.22,13.3,5,13.48,7.94l6.65-.55Q252.4,986.5,322.38,963l.56,6.27q-13,19.39-17.73,19.94a20.3,20.3,0,0,0,4.62,11.64q1.11,11.91-63.52,160.45Q99.79,1506.35,0,1671.6q.28,3.33,3.88,8.86c16.44-3.88,26.77-7.93,31.21-11.82l3.51-.37.56,6.27,6.09-.55,6.28-3.51c.19,1.85,2.22,2.77,6.46,2.4l.55,6.28c.55,6.09-3,15.32-10.34,28.06-6.65,7.57-13.85,23.45-21.42,47.64l.19,2.95,6.09-.55q39.88-44.59,60.56-87.33,116.32-34.06,177.62-67c41.17-3.51,72.56-14.4,94-32.31l-.37-3.32-15.51,4.61-3.51.37-.37-3.33c30.28-4.61,51.14-11.26,62.78-20.49q88.34-68.14,133.49-96.57,92.78-68.13,120.39-132.75c3.32-.74,6.65-1.48,10.34-2.4,8.68-.37,13.48-.55,14.77-.92-.37-1.66.37-2.58,2-3,13.85-1.47,7.2.92,16.06-1.11l23.27-5.35,3.88-.93-1.85,1.11a22.69,22.69,0,0,0,8.49-.55l1.66,6.83L635,1481.05l-23.45,29.36-11.45,38.4,2.22-.55,11.45-4.8-3.69,15,1.11,4.43,3.14,3.88c-1.48.37-2,1.29-1.67,3l.56,2.4L618,1571q10.52-9.14,8.86-16.62c7.57,1.29,12.55,1.85,15.14,1.11l.55,2.4c-4.61,1.11-7,4.8-7.38,11.08l.55,2.4,2.59-.55c38.4-41.91,132.57-185.38,208.09-282.68q-3.6-15.78,118.17-43.95l2.58-.55q4.43,19.11-18.83,92.5c-10,29.54-14.77,45.79-14,48.37-12.92,39.33-19,60.56-18.28,63.88l-28.8,94.35a861.17,861.17,0,0,0-42.84,152.7c1.66-.37,4.25-.18,7.94.74l4.06-3.51c.37,1.67,1.47,2.22,3.14,1.85l-1.67-6.83,12.56-.37c3.69-.92,6.83-5.54,9.41-14-.55-12.74,2-19.57,7.75-21,7.75-30.28,12.56-45.42,14.22-46q10.8-45.14,16.06-51.51c10.89-39.14,18.83-59.27,24-60.56l1.11,4.8-7.94,20.5q-20.78,92.23-42.1,145.68l4.06,17.72,2.58-.55q51.52-110.79,148.27-438.7c1.85-19.2,11.08-34.16,27.51-44.68l-3.69-3.88-.56-2c7.39-1.67,12.56-4.61,15.51-8.68-.37-1.67-6.83-4.06-19.39-7.39l32.13-137.74c7-6.28,11.08-9.6,12.37-9.6l.56,7a17.16,17.16,0,0,0-7.2,3.14l6.09,8.68a197.73,197.73,0,0,1,36.19-31c6.65,1.85,10,4.06,10.34,6.27l4.8-.37q54.84-40.16,107.65-57.61l.37,4.61q-9.69,14.68-13.29,15a20.1,20.1,0,0,0,3,8.86q.83,9.14-47.82,122-111.34,261.72-187,387.37c.19,1.66,1.29,3.88,3.33,6.83,12.37-3,20.31-6.09,23.45-9l2.21-.19.37,4.61,5.17-.37,4.61-2.4q.28,1.94,5,1.67l.37,5c.37,4.43-2.22,11.45-7.94,21-5.36,5.73-10.89,17.73-16.8,36l.18,2.4,4.8-.37q30.18-33.79,46-66.47c58.9-17.35,103.77-34.16,134.79-50.78,31.58-2.77,55.39-10.89,71.64-24.56l-.19-2.4-12,3.51-2.58.19-.19-2.4c22.9-3.33,39-8.49,47.64-15.32,44.68-34.35,78.47-58.9,101.37-73.31,71.27-51.88,104.51-101.73,100.44-149.56Zm-12.19,3.14,1.66,18.65c-2.21,4.62-4.61,7-6.83,7.2l-2.77-31.76c5.17,1.85,7.75,3.69,7.94,5.91ZM126.66,1040.51l-3.13.18L123,1035l12.74-1.11.19,3c-2,.19-5.17,1.29-9.23,3.7ZM64.44,1662.92c-7.38-3.33-14-4.61-19.76-4.06l-.74-9c-.37-3.51,1.66-5.91,6.09-6.83,4.06-.37,6.46,2.59,6.83,8.5q16.06-19.67,17.72-19.94l6.83,2.77C79.21,1652.76,73.49,1662.18,64.44,1662.92ZM729.32,967.39c-3.14.37-9.42-9.41-18.46-28.8l-.56-5.72c5.91-.55,12,9,18.46,28.8Zm-8.86-68.87-2.59,6.09-90.29-37.67Q717.88,870,720.46,898.52ZM339.18,1225.88,326.44,1227l-.55-5.73,12.74-1.11Zm-10.34-196.64,3.14-.19.74,9c-3,.19-6.83,4.61-11.64,13.11l-.55-6.28c5.72-6.83,8.68-12,8.31-15.69Zm-26.77,63.14,1.11,12-3.13.19-1.11-12Zm-14,22.53,6.09-.56c-.56,10-3.33,15.33-8.31,15.69l-3.14.19C286.56,1123.59,288.4,1118.42,288,1114.92Zm-10.53,31.39,3.51-.37.18,3-5.72,9.6-6.09.55-.18-3c6.09-.55,8.86-3.69,8.31-9.79Zm-10.34,28.25-1.85,15.14-3.14.19-1.29-15Zm-103.58,294.5c-4.06,20.68-8.49,31.2-13.11,31.57l-.18-3c-1.11-10.16,3.32-19.76,13.29-28.62Zm-19,41.17.19,3c.37,4.06-1.47,6.46-5.54,6.65l-.19-3Q138.48,1511.61,144.57,1510.23ZM139,1595.71l9.6-.92.37,3.33c-2.4.18-5.54,1.47-9.42,3.69l-6.09.55c-.37-3.14,1.67-5.54,5.54-6.65Zm273.26-84.38q-80.87,39.88-95.09,54.1-87.52,30.47-86.78,37.85c-51.88,20.5-86,35.63-102.48,45.05-3.88.37-9.41-1.11-16.8-4.43-.92-10.52,3.88-19,14-25.85a54.55,54.55,0,0,1,26,4.06c9.6-5,26.4-10.52,50.22-16.43l-.55-6.28-19.2,1.66c2.4-3.32,20.86-12,55.58-26l9.6-.92.19,3c-16.43,1.47-25.48,6.27-27.51,15,.37,3.88,2.58,5.54,6.65,5.17,12.37-7.75,18.46-12.37,18.28-13.66q35.17-6.64,194.42-101.73l.55,5.72C439.62,1490.28,430.58,1498,412.29,1511.33Zm-162.85,53.54a62.86,62.86,0,0,0,39.88-18.46c4.43-.37,6.84,1.29,7,5.17-7.57.74-22.15,7-43.39,19.2l-3.14.19-.37-6.09Zm262.74-201.81-81.43,64.62c-60.56,39.7-93.06,59.64-97.86,60q-144.57,79.48-179.65,82.53l-3.51.37q4.43-16.34,128.88-263.66,54.84-4.71,172.64-51.14l19.2-1.67c39.7-3.51,69.42,4.25,89,22.71l1.11,12c-14.58,42.29-30.83,67-48.37,74.22ZM353,1273.52l13.11-1.11.19,3-13.11,1.11Zm184.09-31.21,9.6-.92c8.86,4.25,13.48,7.94,13.85,11.26l.19,3C552.25,1256.35,544.31,1251.92,537.11,1242.32Zm26-148.26q-12.74,15.23-69.79,51.88c-12.56,1.11-59.27,19.2-140.14,54.65a25.63,25.63,0,0,0-12.92-2.22l-.55-5.72c-.92-11.63,4.24-26.22,15.69-43.94,6.27-33.24,13.11-52.26,20.68-56.87L443.5,940.25q-1.11-14.13,43.2-21.61l9.6-.92.74,8.68c29-4.43,47.08-7,54.1-7.57,53.55-4.61,81.43,6.28,83.64,32.31l6.09-.56-1.29-15.32,6.65-.56c15.69,8.68,24.18,19.2,25.29,31.57.74,8.5-3.88,19-13.66,31.58-4.06.37-6.46-2.59-6.83-8.5l-6.65.56-1.47,18.46q-40.72,60.93-59.08,62.59c-11.08,15.32-17.91,22.9-20.68,23.08Zm41.36,106.17c-5.54-3.7-10-5.36-13.3-5.17l-.74-9,6.09-.56,13.48,7.94c.56,4.24-1.29,6.46-5.54,6.83ZM647.34,1251c5.91,2.4,9.41,5,10.15,7.39l-3,.74.19.19a6.53,6.53,0,0,0-1.85.37l-4.43,3.51-1.1-12.19Zm4.06,25.48-.55-2.4,7.75-1.85.56,2.4-7.76,1.85Zm18.65,20.86c7.94-1.29,11.82-1.85,26.59-5.17l.55,2.4L669.13,1301a37,37,0,0,0,.92-3.69ZM697.38,1309c-11.82,1.11-9.23-.37-28.07,3.88l-.55-2.4,23.63-7.57,11.26-2.58,1.11,4.43C699.59,1305.83,703.29,1305.83,697.38,1309Zm24.93-5.91c-2.77.74-5-.55-6.28-3.69l7.2-1.67c3.14-.74,5.17.56,5.91,3.7l-6.83,1.66Zm67.58-72.75-.56-2.4,11.64-2.77,1.11,4.43Zm72.19,442.76c.74-3.33.92-5.72.55-7.39l2.59-.55c3.14-.74,5,.37,5.72,3.33l.56,2.4-9.42,2.22Zm50.59-423.75-5.17-.92a146.22,146.22,0,0,1-21,7l-4.8,1.11c-2.77.74-5-.37-6.09-3.33l33.79-7.75,11.08-5.17,3.7,4.25c-5.36,1.11-9.23,2.77-11.45,4.8Zm26-8.31-.56-2.4c1.67-.37,3.88-1.66,6.28-4.06l24-5.54.55,2.4C956.24,1234.56,946.08,1237.7,938.7,1241Zm3.69-48.56c-1.66.37-3.88,1.85-6.65,4.06-.37-1.66-3.69-1.66-10-.19-1.11-4.61,16.62-11.07,53.36-19.57l5.17-1.11,1.11,4.43c-25.85,7.57-40.25,11.82-43,12.37Zm64.62-69.79c-2.58,29.36-12.92,46-31.21,50.22l-.55-2.4L959,1176.77l-7.2,1.67a18.13,18.13,0,0,1-10-.19l-1.48-6.46q-.83-3.6,70.53-97.3l5.54.92c2,8.5-1.1,24.19-9.41,47.27Zm114.29-97.86-2.22.19-.37-4.61,9.6-.92.18,2.4A31.09,31.09,0,0,0,1121.31,1024.81Zm-47.08,472.86c-5.54-2.59-10.52-3.7-14.77-3.33l-.55-7q-.28-3.6,4.43-5c3.14-.37,5,1.85,5.36,6.65,7.94-10.15,12.37-15.32,13.29-15.32l5,2C1085.12,1489.73,1080.87,1497.12,1074.22,1497.67ZM1579,969.61c-2.4.19-7-7.2-14.21-22.16l-.37-4.61c4.61-.37,9.42,6.83,14.22,21.6l.37,5.17Zm-6.65-52.81-2.22,4.8L1501.85,893C1547.45,894.46,1571.08,902.4,1572.38,916.8Zm-289.7,248.71-9.6.92-.37-4.62,9.6-.92Zm-7.94-149.37,2.58-.19.56,7q-3.6.28-8.86,10l-.37-4.61q6.37-8,6.09-12.19Zm-20.13,48,.74,9-2.59.19-.74-9Zm-10.89,17.17,4.8-.37q-.83,11.63-6.09,12.18l-2.59.19c2.77-5.17,4.06-9.23,3.88-12Zm-7.75,23.64,2.22-.19.19,2.4-4.25,7.39-4.8.37-.19-2.4c5-.37,7.2-3,6.83-7.57Zm-7.75,21.42-1.66,11.82-2.22.19-.92-11.63,4.8-.37Zm-78.84,224q-4.7,23.27-10,23.82l-.18-2c-.56-7.75,2.77-15.14,10.15-21.79Zm-14.58,31.21.19,2c.37,3.32-1.11,5.17-4.43,5.35l-.18-2.4q-.28-3.6,4.43-5Zm-4.06,65,7.39-.55.18,2.4a21.23,21.23,0,0,0-7.2,2.77l-4.8.37q-.28-3.87,4.43-5Zm207.35-64.07c-40.62,20.13-64.81,33.79-72.38,40.81-44.31,15.51-66.28,25.11-65.91,29-39.33,15.7-65.18,27-77.36,34.16-3,.19-7.2-.92-12.74-3.51-.74-7.94,3-14.4,10.71-19.2a41.69,41.69,0,0,1,19.76,3c7.38-3.69,20.12-7.75,38.22-12.37l-.37-4.61-15,1.29c1.85-2.59,16.06-9.23,42.47-19.94l7.38-.56.19,2c-12.55,1.11-19.57,4.8-21,11.45.19,3,2,4.43,5.17,4.06,9.23-6.09,13.66-9.6,13.66-10.71q26.59-4.71,147.53-77.36l.37,4.61c0,1.85-6.83,7.75-20.68,17.91Zm-123.71,40.62a49.56,49.56,0,0,0,30.65-13.85c3.14-.19,5,1.11,5.17,4.06-5.54.55-16.44,5.17-32.87,14l-2.58.18-.37-4.43Zm199.78-153.43-61.48,49.48q-69,45.14-74.78,45.61-109.67,60.37-136.45,62.59l-2.58.18q3.33-12.46,98-200.15,41.26-3.6,130.91-39.14l15-1.29c30.1-2.58,52.62,3.33,67.39,17.54l.74,9c-11.26,31.76-23.45,50.41-36.74,56.13Zm-120.76-67.95,9.6-.92.18,2.4-9.6.92Zm139.77-23.82,7.39-.55c6.83,3.32,10.34,6.27,10.52,8.68l.19,2C1444.79,1188.58,1438.7,1185.26,1433.16,1177.88Zm19.39-112.45c-6.46,7.76-24,21-52.62,39.52q-14.4,1.38-106.35,41.17a24.28,24.28,0,0,0-9.79-1.29l-.37-4.61c-.74-8.86,3.14-19.94,11.64-33.42,4.8-25.48,10.15-39.7,15.69-43l51.51-115.21c-.56-6.83,10.34-12.37,32.5-16.62l7.39-.55.55,7q32.68-5.26,41-6.09c40.62-3.51,61.85,4.61,63.52,24.56l4.8-.37-.92-11.08,4.8-.37c11.82,6.46,18.1,14.21,18.83,23.45.55,6.65-2.77,14.77-9.79,24.19-3.14.37-5-1.85-5.36-6.65l-4.8.37-1.47,13.85c-20.5,31.21-35.45,47.27-44.87,48-8.31,11.26-13.48,17-15.88,17.17Zm21.6,76.81-.55-7,4.8-.37,10.34,6.27q.28,4.43-4.43,5c-4.43-2.77-7.75-4.06-10.16-3.88ZM614.66,1590.73l-4.8,1.11-4.06,3.51c.74,3,2.59,4.06,5.73,3.33s4.43-2.58,3.69-5.54l-.56-2.4Zm-18.28-36.37.55,2.4c3.14-.74,4.43-2.58,3.7-5.54l-.56-2.4c-3,.74-4.25,2.59-3.69,5.54ZM727.1,1308.79l3.51-2.22a5.58,5.58,0,0,1-1.85-.37A2.13,2.13,0,0,0,727.1,1308.79Zm-.74-63.7,5.54-1.29-1.11-4.8-5.54,1.29Zm1304.84,186.48-12.56-1.47-2.22,4.8.19,2.4,74.78-6.28-.37-4.61Zm68.32-5.72.37,4.61h.74l-.37-4.61Zm313.7-41,.37,4.62,8.13,1.47-.37-4.61Zm-11.45.92c-56.13,12.56-63.14,10.34-75,11.26l.37,4.61,5.17-.37,2.77-.19-.74-.55,6.09-2.4c55.58-6.09,62-3.88,61.48-10.16Zm-337-81.61-5-1.66c-4.06,10.89-6.09,17.35-5.91,19.2l.18,2C2058,1323.56,2061.48,1316.91,2064.81,1304.17Zm-67.58-36.37-.19-2.4-2.58.19-4.62,3,2.59,4.43c3.51-.37,5.17-2,4.8-5.17ZM2144,1419.57l-.37-4.61-1.47.19.37,4.61,1.48-.19Zm304.65-68.68,3.51-.37c2-.19,3-1.85,2.77-4.8l-2-4.43c-12.74,1.11-18.65,1.67-29,7.39l-.19-2.4-15.33,1.48c-.37-4.62-1.66-7-3.69-6.83l-7.94.74c-9.23.74-13.66.37-18.28,3.88-.18-1.66-.74-2.4-1.66-2.4l-8.86.74-5.17,3c-.19-1.67-.74-2.4-1.66-2.4l-3.14,2.77-.19-2.4-12.37-.92-3,.19.37,4.61,6.28,1.66,5.91-.37a10.74,10.74,0,0,0,6.83,1.47l5.17-2.58.19,2c-29,7.2-28.8,5.91-48.75,9.23-2.22-1.47-3.88-2.21-5-2l-.37.37c-2.21-.19-3.51-1.66-3.69-4.06l10.34-1.29c.74,0,1.29.74,7,1.85,8.31-4.06,8.68-5.73,13.11-6.09l-.37-4.62c-28.44,5.54-17,1.85-52.62,5l-1.67.19-.37-4.61c45.79-5.54,30.46-2.4,46.16-6.83.19,1.66.74,2.4,1.67,2.4a10.77,10.77,0,0,1,6.27-3.14l3.14-.18c16.06-1.29,21.42,1.85,53.18-7l.18,2,5.17-2.59,4.8-.37c-.37-4.62,6.65-5.36,9-5.54l-.37-5c-55.76,11.26-70.35,8.13-85.86,12.56l-.19-2c-14.58,2.58-15.14,1.47-18.83,1.66a9.77,9.77,0,0,0-4.61,3c-.19-1.66-.74-2.4-1.85-2.4a3.71,3.71,0,0,0-.92.19l-47.27,7.75c-.18-1.29-.74-2-1.85-1.85-24.56,5.17-17.91,6.09-50.78,9a15.44,15.44,0,0,0-6.09,2.58c-.19-1.29-.93-2-2.59-1.85l-20.13,1.67-13.48,3.32c-.19-1.29-.92-2-2.58-1.85a107.23,107.23,0,0,1-19.58,3.69h-.37c-3.33.37,1.66-.92-.92-2l-4.06,2.4c-5.91.56-2.77-.37-23.08-.19-35.63,4.43-31.76,5-35.63,5.17l-13.3-.92a1.83,1.83,0,0,1-2,2.22c-15.14-2-22.89-4.43-23.08-7.2q3-21.6,10.52-22.16l2.59-.18-2.22,4.8,2.58-.19c4.8-2.59,7-5,6.83-7.2l-.37-5-4.8.37-.37-4.62a16.6,16.6,0,0,1,1.47-9.23l10.89-17.54.37,4.62,5.17-.37-.37-4.61-3-4.25c3.88-3.33,6.83-5.17,9.23-5.36l-.19-2.4-7,.55-.55-7c14-29.17,20.68-46.16,20.31-51l5,2c3.14-.19,4.61-2,4.43-5.36l-4.8.37-.18-2a17.55,17.55,0,0,1,1.85-9.79c7.57-7.94,11.08-15.88,10.34-24.19,1.48-.19,2.22.56,2.4,2.22,6.46-3.69,11.45-13.48,15.14-29.73q17.17-31,48.93-123.89c40.63-109.31,39-120.94,44.68-146.79l-4.8.37a16.62,16.62,0,0,1-1.85,9.42c-3.33-1.29-5.91-2-7.75-1.85l-.19-2c-.74-9.42,3.14-20.68,12-34l2.22-.19,4.06,15.88,4.8-.37c-.19-1.11,1.11-7.39,3.69-19-.19-2.4-2-3.88-5.72-4.06l-4.61,3c-.37-3.33-.19-12,.37-25.85l-2.4.19c-4.06-4.06-6.09-7.39-6.27-10.16l-26.41,2.58a24.25,24.25,0,0,0-3-8.13c-.18-2.4,5.73-4.8,17.91-7.2l5.36,2,5-3c.19,1.66,1.11,2.4,3,2.21l5-3c.19,1.67,1.11,2.4,3,2.22l2.4-.19-.37-5.35c-3.69.37-13.48.37-29-.19l-5,3.33-.19-3q-185.84,15.23-211,17.54c-2.22.19-10.89,0-26.22-.37.18,2-1.67,3.14-5.36,3.51l-5.36-2.4-18.09,4.62c-4.25.37-11.45.18-21.42-.93a18.41,18.41,0,0,1-10.16,3.88c-2.21.18,26.41-1.48,53-3.33-2.77,2.22-7,3.51-12.92,4.06a17.76,17.76,0,0,1-10.52-1.85c-4.06,1.85-17.17,4.8-39.15,9.23l-5.35-2-86.41,13.3a21.58,21.58,0,0,0-11.64-1.85c-4.61.37-12.37,2-23.08,5l-41.73,17.35,3.13,5.17c2-.19,5-1.29,8.5-3.33l14.77,1.29-1.85,13.85c-13.66,6.09-21.6,15.14-23.82,26.59-20.49,9-30.65,15.51-30.65,19.39l.19,2.4,3.13-.18,5.54-3,6.46,7.75.92,10.71q.56,5-103.21,217.69c-59.82,136.63-91.21,211.41-94.17,224.89-20.49,5.72-32.31,14-35.82,25.11.37,3.51,6.46,5.91,18.28,6.83l.55,5.35-5.35,8.86.92,10.71q.83,8.31,44.87,12.74c-.19-1.85.74-3,2.77-3.14q.83,10-5.54,38.77l3.14-.19c12.19-16.62,17.91-28.07,17.36-34.34l2.58-.19c3-.19,6.09,3.14,9.79,10.34q-5.54,2.22-38.77,88.26l3.14,5.17,3.14-.19q40.72-103,51.14-113.92,53.46-4.71,184.82-18.83l5.54-3.33c.18,1.85,1.29,2.77,3.32,2.59l5.73-.56,5.54-3.32c.19,1.85,1.29,2.77,3.33,2.58l66.28-5.72c17.54-1.48,25.85-6.83,25.11-15.88-.18-2.4,10.16-5.17,31-8.13,2-.19,5,.37,9,1.66-.19-1.66,10.34-3.32,31.39-5.17.55-11.08,4.06-17,10.34-17.54l-.55-5.35a91.7,91.7,0,0,0-20.31,4.61c-13.85-.74-22.71-1.85-26.4-3.14-3.7,2-6.46,3.14-8.5,3.33l-46.16,1.47-5.54,3q-.28-2.49-3.32-2.21l-2.59.18-5.91,3c-.19-1.67-5-3-14.58-4.25l-5.91,3.51-11.45.92-.19-3q89.18-9.69,88.07-24.18c3.88-.37,5.91,1.47,6.27,5.35l17.36-4.43-.55-5.36-142.36,3.88c.19,1.85-.74,3-2.77,3.14l-17.36-1.47a20.91,20.91,0,0,0-11.07,3.88l-6.46-2.4c-17.91,1.48-31.21,3.69-40.07,6.46a252.2,252.2,0,0,0-40.62.55l-31.94,2.77-14.77-1.66c-.74-9.42,17.54-55.76,55.21-138.85,10.89-28.07,20.86-45.61,30.46-52.25,2-.19,5,.55,9,2.21l22.71-7.75,11.63,1.85c19.58-1.66,42.29-7.2,68.32-16.8,6.46-.55,11.26-.18,14.77,1.29l17.35-4.06,51.7-4.43c22-1.85,45.79-6.65,71.64-14.58l-.56-5.35c-9.6.92-14.58-.74-15-4.62-.56-7.2-7.57-10.16-21-9l-.56-5.35,14.22-4.06,37.29-3.14-.55-5.35c-1.48.18-9,0-23.08-.56l-.55-5.72,14.4-1.29c3.88-.37,5.54-2.22,5.17-5.91-19.38.55-29.17-.37-29.36-3q-202.73,10-203.29,3.69c-2,.19-4.8,1.48-8.5,3.7l-3.51-5.54q53.72-114.1,63-115c.19,3-1.29,7.75-4.43,14.22l.19,2.4,5.73-.55c14.21-34,26.22-51.51,36.19-52.25,42.47-3.7-5.91-6.46,84.94-20.68,3.69,1.67,6.27,2.4,8.12,2.22q53.45-10.8,149-22.52L2065,883l-34,3.14-.37-5.36a18.37,18.37,0,0,0,10.16-3.88l.19,3c1.85-.18,4.43-1.47,7.75-3.69,5.91-.55,10.34,0,13.48,1.66a196.54,196.54,0,0,1,28.44-5.72l21.23-2c5.17-3.32,7.57-6.27,7.39-9l-.19-2.4a67,67,0,0,1-18.65-1.11c-.19-3,1.29-5,4.8-5.91l39.51-3.69,18.1-4.62c.19,2,1.11,2.77,2.58,2.77,1.85-.18,4.43-1.47,7.75-3.69.93.19,2,.19,3,.37a147.56,147.56,0,0,0-7.94,21.6l-5.17.37a22.63,22.63,0,0,0-3-9.42l-2.59.19c-48,133.68-69.42,195.9-113.74,298.56-8.13,26.22-15,40.81-20.86,43.95.19,3,2,4.43,5.17,4.06,1.11,12.92-1.85,25.66-9,38.22-20.5,59.09-34.16,91.4-41.18,97.3l4.62,27.88q.27,4.43-4.43,5l-4.8.37c-.74-7.76-3.51-11.45-8.49-10.89l-2.59.18a109.78,109.78,0,0,0-14.21,34.16l4.8-.37q9.69-6.36,8.86-15l9.6-.92,5.54,2c-4.43,7-6.46,12.56-6.09,16.8l2.58,4.43-6.28,14.77.19,2.4c5.54-.56,11.63,1.29,18.1,5.17,4.43-.37,9.23-2.4,14.58-5.91,5.54-.55,26.22-.74,61.86-.74l17.91-6.09c21.79-.19,25.29.37,44.13-1.29l7.75-.74,4.06-2.77.19,2.4c19.76-1.67,21-.37,36.56,1.47l.19,2.4-10.89.92.37,4.61a15.67,15.67,0,0,0,8.68-3.33c2.77-.18,4.43,1.29,4.61,4.62a65,65,0,0,0-15,3.32l-4.8-1.66c-7.57,2-5.91,2.58-11.08,3l-7.57-1.47a1.78,1.78,0,0,1-1.85,2.21c.19,3,1.85,4.43,4.61,4.25l7.75-.74,40.44-3.51,15.32-3.32c.19,1.29.74,2,2,1.85l7.39-2.77,13.85-1.11c10.71-.92,10.52-1.67,33.79-5.36-.19-1.47.37-2,1.47-2.22l.19,2c37.85-6.46,40.25-6.83,46.34-8.86l.56,1.11c9.41-2.22,4.06-1.66,6.65-3.51.19,1.66.74,2.4,1.66,2.4l6.65-.55-.37-5-13.48-.19-.19-.37c-.56.19-.92.19-1.48.37h-1.85v.37c-9,1.85-9.23.55-15.14,1.11l-33.79,1.85-.18-2.4,18.83-2.58,6.83-.56,3.88-2.77.19,2.4c26.59-2.22,36,4.43,159-21.79,6.65-.56,6.09-6.09,10.34-17.54a11.47,11.47,0,0,1-6.46-1.47c-10.16,3.88-15.51,2-35.08,5.17-1.66.19-3-1.29-3.51-4.25l-.19-2,18.83.55c3.51-.37,10.34-.92,20.5-6.65,0,1.66-3.88,2.58-1.67,2.4h0Zm-909.16,14.58-8.68.74c-.37-3.51,4.25-16.8,13.85-39.51l5.72-.55C1550.59,1331.5,1547.08,1344.61,1539.51,1365.47Zm10.53-42.1-.19-2.4c-.19-3,1.66-5,5.72-5.91l.19,2.4C1555.95,1321,1554.1,1323,1550,1323.37Zm115.4,89.18.19,2.4-14.4,1.29-.19-2.4Zm-17.35-1.47c.19,3-4.25,6.28-13.85,9.6l-17.73-1.29-5.72.55-.55-5.36ZM1764.77,874l-8.68.74-.19-3c-.19-3,1.48-5,5.17-5.91l3.14-.19,5.91,2.4C1770.31,871.56,1768.65,873.59,1764.77,874Zm132-25.85,2.77-.18.37,5.35L1892,854c-.19-3,1.29-5,4.8-5.91Zm-33.24,11.64-13.11-1.48-.19-2.4c17.17-1.48,22.9-3.33,33.42-6.28.19,2,2,2.77,5.36,2.4l.37,5.35-5.17.56a17.74,17.74,0,0,1-10.53-1.85A22.57,22.57,0,0,1,1863.55,859.75ZM1880,907.57l-.19-2.4,21.24-2,.19,2.4Zm22.71-18.47-.19-3,10.34-.92.19,3Zm2.4-36.19-2.77.18,2.4-5.72,23.63-2.22.19,3A142.65,142.65,0,0,0,1905.1,852.92Zm12,51-.37-5.35,10.34-.92q5.26-.56,5.54,5l-15.51,1.29Zm62.59-85.3-13.29,3.7-2.4.18a135.76,135.76,0,0,1-24-.55c17.17-1.11,33.61-2.4,39.7-3.33Zm-14.21,59.09.19,2.4-18.28,1.67-.19-2.4Zm29.91,14.21c-.19-2.21-3.7-3.69-10.89-4.43l-18.28,5.17-14,.55c-3.14-2.22-4.8-3.69-5-4.8l16.25.92,36.56-5.91,18.65.74.19,3a104.69,104.69,0,0,0-23.45,4.8Zm188.14-48.56c2.22.19,3.69.19,4.25.19a70.7,70.7,0,0,1,22-14.77c-6.65,29.17-17,50.78-31.21,64.81l-10.34-6.28C2176.89,865.28,2182.06,850.7,2183.53,843.31Zm-31.76,54.47,2.58-.18c-3.51,6.65-6.65,10.15-9.23,10.34l-.56-7c1.67,0,4.06-1.11,7.2-3.14Zm-20.49,48.93c5-19.94,9.79-31.2,14.21-34.16l.19,2.4c-2.58,18.46-6.65,28.25-12,29l.92,11.63c-4.43,6.28-6.46,11.08-6.28,14.77l-2.58.19-1.47-16.06C2127.22,954.1,2129.61,951.51,2131.28,946.71Zm-7.94,26.59c.18,2.77-1.67,9.23-5.36,19.2l-2.58.19-.56-7c3.51-8.13,6.46-12.19,8.49-12.37h0Zm-149,432.42-.19-2,4.8-.37.56,7c-2.59.19-4.43-1.29-5.17-4.62Zm212.89,5.54c-.19-1.67-.92-2.4-2.58-2.22l-12,1.11-.19-2.4h1.11l28.43-2.4.19,2.4C2193.87,1408.12,2188.89,1409.41,2187.22,1411.26Zm-14.21-5.91c1.11.55.55,1.11,0,1.47C2172.45,1406.64,2171.71,1406.09,2173,1405.35Zm1.47-33.24-15.88,1.29-.19-2.4,14.4-1.29,12.55-3.14c.19,1.47.92,2,2.59,1.85,15-2.58,13.48-3.33,20.68-3.88,2.4-.19,3.88,1.29,4.06,4.25l-38.22,3.32Zm55.58-4.8c-8.86-.92-9.41-1.66-15.69-1.11l-.19-2,14.22-1.29.19,2C2227.1,1365.1,2232.46,1365.47,2230.06,1367.32Zm1.11-2.58-.19-2,7.75-.74.19,2Zm17.17-1.48-.19-2c1.29-.18,3.14-1.11,5.54-3,3.88-.37,5.91,2.22,6.28,5.17l-11.63-.19Zm22-2.77-.19-2.4,9.41-.74.19,2.4Zm13.11-1.11c-.18-2.77.92-4.43,3.33-4.8l3.14,4.06a1.71,1.71,0,0,1,1.47-2.22l2.4,4.43-10.34-1.48ZM2465.1,1338l.19-.19v-.19a.65.65,0,0,0-.19.37Zm3.33-2.4c1.47-.92,2.22-1.85-1.29-2.4-1.66,1.85,1.85,2.4-1.85,2.58l.19,1.66c.37-.37,1.29-.92,2-1.47l-2,1.66v.19l-3.88,5,7.75-2.77h.92l-.37-4.62Zm13.48,10.53-1.47.18.37,4.62,10.89-.92C2491.51,1347,2484.31,1346.08,2481.9,1346.08Z"/></svg>