<svg id="Layer_1" data-name="Layer 1" xmlns="http://www.w3.org/2000/svg" viewBox="0 0 522.33 93"><defs><style>.cls-1{isolation:isolate;}.cls-2{fill:#1a252f;}.cls-3{fill:#fff;stroke:#1a252f;stroke-width:2px;}.cls-3,.cls-4{stroke-miterlimit:10;}.cls-4{fill:#ffba14;stroke:#999;stroke-width:0.5px;}.cls-5{fill:#f8de9d;}</style></defs><title>ck_logo</title><g class="cls-1"><g class="cls-1"><path class="cls-2" d="M42,63.46q-9.5,23.7-19,23.8-11.5.1-16.8-11.9Q2.1,66.16,2,51.26a96.43,96.43,0,0,1,4.4-30.6q5.2-16.1,14.1-17.1,1.3-.1,2.5-.1,8.3,0,12.8,7.4,3.3,5.6,5.6,17.8a29.05,29.05,0,0,1,1.7,6q0,3.3-4.1,5.1a5.13,5.13,0,0,1-2.1.4,13.61,13.61,0,0,1-6.4-1.9q-4.1-2.2-4.1-4.8a26.45,26.45,0,0,1,1.4-3.9,28.82,28.82,0,0,0-1.6-8.35q-1.4-3.95-3.2-4.35-2.8-.7-4.9,11.1a147.52,147.52,0,0,0-2.2,21.6,81.61,81.61,0,0,0,1,16.5q1.5,8.7,4.5,9.3,1.8.3,4.3-4.5a47.06,47.06,0,0,0,4-10.4,9.59,9.59,0,0,1-.2-1.9q0-5.9,7.2-5.9a17.32,17.32,0,0,1,3.2.3q4.9,1,4.9,4.9A7.2,7.2,0,0,1,42,63.46Z"/><path class="cls-2" d="M142.6,19.36q.4,6.7-4.6,23.5a167.77,167.77,0,0,1-12,30.7q-8.1,15.1-14.8,15.1a9.48,9.48,0,0,1-6.55-3q-3.15-3-3.15-6.2a4.39,4.39,0,0,1,.9-2.7q-1.6-43.1-1.2-58.6-2.1-3.4-2.1-5.1,0-2.4,2.7-4.2a8.53,8.53,0,0,1,5-1.7,5.86,5.86,0,0,1,4,1.4q13-5.1,17.3-5.1a10,10,0,0,1,4.5,1.1,18,18,0,0,1,6.3,5.6A17.42,17.42,0,0,1,142.6,19.36Zm-13.6-3a3.23,3.23,0,0,0-2.6-1.2q-3.1,0-12.2,7.2-.6,7.5-.6,16.6,0,13,1.2,26.8,5.3-12.9,9.8-27.1,4.8-15.3,4.8-20.4A3.22,3.22,0,0,0,129,16.36Z"/><path class="cls-2" d="M185,14.36a9,9,0,0,1-5.9,1.9,24.08,24.08,0,0,1-3.5-.3q-2.9.9-5.2,1.8-5.6,2.1-7.4,3.6a235.29,235.29,0,0,0,0,23.8,9.7,9.7,0,0,1,3-.8,4.33,4.33,0,0,1,4.1-2.1q2.9,0,6.75,2.8t3.85,5.5a3.52,3.52,0,0,1-.3,1.4,6,6,0,0,1-3.7,3.8,11.54,11.54,0,0,1-4.4.25,8.74,8.74,0,0,0-3.7.15q-2.3,1.1-5.6,2.6,0,9,.6,11.6a32.69,32.69,0,0,0,7-2.4q.5-.7,1-1.3,1-1.1,3.6-.9Q178,66,181,69t3,6.1a4.29,4.29,0,0,1-2.3,4q-2.3,1.3-7.7.9l-9.4,4.7a19.13,19.13,0,0,0-2.6,2,4.37,4.37,0,0,1-2.7,1.3,4.73,4.73,0,0,1-.9-.1q-5.3-1.6-9.6-8.3a2.29,2.29,0,0,1-.3-1.2q0-.3,1.1-4-1.1-29.1-.4-62a3.46,3.46,0,0,1-.7-2q0-3.3,6.1-4.2a6.13,6.13,0,0,1,3.3.7q1.3.7,2.5,1.3l12-3.8a15.27,15.27,0,0,0,2.3-1.2,5.61,5.61,0,0,1,3-.8,10.91,10.91,0,0,1,1.9.2q2.2.4,4.35,3.45a10.13,10.13,0,0,1,2.15,5.75A3.17,3.17,0,0,1,185,14.36Z"/></g></g><g class="cls-1"><path class="cls-2" d="M246.5,73.76a8.7,8.7,0,0,1,.3,2.3,11.35,11.35,0,0,1-3.3,7.8q-3.3,3.6-7.1,3.6a6.7,6.7,0,0,1-2.3-.4q-3.6-1.3-4.8-5.8-1.3-5.2-3.2-6.7l-18-14,1.2,12a15.17,15.17,0,0,0,1,3.85,11.94,11.94,0,0,1,.9,3.65,5.28,5.28,0,0,1-2,3.9,6.75,6.75,0,0,1-4.75,1.8,12.16,12.16,0,0,1-6.6-2.3q-3.8-2.6-3.8-5.5a3.86,3.86,0,0,1,1.1-2.4,3.86,3.86,0,0,0,1.1-2.4l-2.6-59a8.31,8.31,0,0,0-1.05-3.1,6.64,6.64,0,0,1-.95-2.7q0-1.9,2.6-4.2.6-.5,3.2-.5,8.9,0,11.2,4.1a4.4,4.4,0,0,1,.6,2.1,6.6,6.6,0,0,1-.9,2.75,6.77,6.77,0,0,0-.9,3V40l16.8-29.8q1-2.6,1.9-5.2a4.67,4.67,0,0,1,4.6-2.7,11.36,11.36,0,0,1,6.5,2.3q3.7,2.6,3.2,5.6a3.94,3.94,0,0,1-1.9,3,6.67,6.67,0,0,0-2.3,1.8l-20.2,35.2,23.2,17.6,4.35,2.7A6.2,6.2,0,0,1,246.5,73.76Z"/></g><g class="cls-1"><path class="cls-2" d="M271.3,83.76q-.9,2.5-5.2,2.5a18.53,18.53,0,0,1-2.6-.2q-8.2-1.3-9.6-4.9a3.52,3.52,0,0,1-.3-1.4,5.86,5.86,0,0,1,2.3-4.2q-.4-15-1.8-61.2a6.36,6.36,0,0,0-.7-3,7.15,7.15,0,0,1-.8-2.55q0-1.8,2.3-3.8a6.61,6.61,0,0,1,4.5-1.4,16.82,16.82,0,0,1,7,1.7q4.4,2.1,4.4,5.1a28.11,28.11,0,0,1-2.1,5.4l1,60.6a7.38,7.38,0,0,0,.9,3,7.32,7.32,0,0,1,.9,3A5.09,5.09,0,0,1,271.3,83.76Z"/><path class="cls-2" d="M320.7,15.56q-1.1,2.1-4.7,2.1a26,26,0,0,0-5.5.3q-3.7,1.6-8.6,3.6-.3,7.6-.3,16.7,0,18.5,1.1,37.9a9.21,9.21,0,0,0,1,3.65,9.1,9.1,0,0,1,1,3.25,3.71,3.71,0,0,1-.9,2.4,7.66,7.66,0,0,1-6.6,3A14,14,0,0,1,290,86.41q-3.45-2.05-3.95-4.85-.3-1.5,1.55-3.4a5.38,5.38,0,0,0,1.85-3.6q-.7-19.9-.7-34.8,0-9,.3-14.4-.1,0-2.8,1a8.49,8.49,0,0,1-2.9.7,4.37,4.37,0,0,1-2.9-1.1,49.87,49.87,0,0,1-4-3.6,5.65,5.65,0,0,1-1.6-3.8,7.38,7.38,0,0,1,.2-1.6q.3-1.4,14.6-5.7,15.4-4.7,16.6-5.5A7,7,0,0,0,308.75,4a4.94,4.94,0,0,1,3-1.6q2.2-.2,5.8,2.9,4,3.5,4,7.3A6.33,6.33,0,0,1,320.7,15.56Z"/><path class="cls-2" d="M363.9,63.46q-9.5,23.7-19,23.8-11.5.1-16.8-11.9-4.1-9.2-4.2-24.1a96.42,96.42,0,0,1,4.4-30.6q5.2-16.1,14.1-17.1,1.3-.1,2.5-.1,8.3,0,12.8,7.4,3.3,5.6,5.6,17.8a29.05,29.05,0,0,1,1.7,6q0,3.3-4.1,5.1a5.13,5.13,0,0,1-2.1.4,13.61,13.61,0,0,1-6.4-1.9q-4.1-2.2-4.1-4.8a26.48,26.48,0,0,1,1.4-3.9,28.81,28.81,0,0,0-1.6-8.35q-1.4-3.95-3.2-4.35-2.8-.7-4.9,11.1a147.52,147.52,0,0,0-2.2,21.6,81.57,81.57,0,0,0,1,16.5q1.5,8.7,4.5,9.3,1.8.3,4.3-4.5a47.06,47.06,0,0,0,4-10.4,9.59,9.59,0,0,1-.2-1.9q0-5.9,7.2-5.9a17.33,17.33,0,0,1,3.2.3q4.9,1,4.9,4.9A7.2,7.2,0,0,1,363.9,63.46Z"/></g><g class="cls-1"><path class="cls-2" d="M410.7,51.36q-.4,8,.2,23a8.39,8.39,0,0,0,.7,2.8,8.43,8.43,0,0,1,.7,2.6q0,2-3.4,3.4a4.61,4.61,0,0,1-1.8.3,16,16,0,0,1-7-1.8q-4.4-2.1-4.4-5a8.79,8.79,0,0,1,1-3.4l1.85-4.1V52l-13.4,2.8q0,4.9.1,13.8t.1,9a16.4,16.4,0,0,0,.65,3.7,16.52,16.52,0,0,1,.65,3.6,4.23,4.23,0,0,1-1.35,3.25,5.16,5.16,0,0,1-3.65,1.25,10.59,10.59,0,0,1-4.9-1.3,8.52,8.52,0,0,1-3.35-2.65,4.5,4.5,0,0,1-.85-1.95,14.6,14.6,0,0,1,.8-2.1q0-4.3-.1-14T373.1,55q-.1-.3-2.4-4.3a6,6,0,0,1-1-4.3,2.75,2.75,0,0,1,1.2-1.8l2-1.4q-.3-23.8.2-32.2a7,7,0,0,1-.9-2.9q0-2.2,3.1-3.7a9.09,9.09,0,0,1,3.7-.6q7.8,0,9.5,4.2a4.29,4.29,0,0,1,.3,1.5q0,1.4-1.75,4.15a9.15,9.15,0,0,0-1.75,4.55q-.6,16-.2,23.8,9.8-1.7,13-2.6a206.4,206.4,0,0,1,.2-28.6,12.72,12.72,0,0,1-.9-4.1q0-3,3.7-4.9a5.28,5.28,0,0,1,2.3-.4,14.69,14.69,0,0,1,6.8,1.7q3.8,2,3.9,5.1.1,1.4-1.75,3.5a6,6,0,0,0-1.85,3.7q-.2,14.4.2,24.2a16.86,16.86,0,0,1,3.25,3.8,8.12,8.12,0,0,1,1.65,4.1,2.56,2.56,0,0,1-1.7,2.4Z"/></g><g class="cls-1"><path class="cls-2" d="M460.39,14.36a9,9,0,0,1-5.9,1.9A24.07,24.07,0,0,1,451,16q-2.9.9-5.2,1.8-5.6,2.1-7.4,3.6a235.57,235.57,0,0,0,0,23.8,9.71,9.71,0,0,1,3-.8,4.33,4.33,0,0,1,4.1-2.1q2.9,0,6.75,2.8t3.85,5.5a3.52,3.52,0,0,1-.3,1.4,6,6,0,0,1-3.7,3.8,11.54,11.54,0,0,1-4.4.25,8.74,8.74,0,0,0-3.7.15q-2.3,1.1-5.6,2.6,0,9,.6,11.6a32.69,32.69,0,0,0,7-2.4q.5-.7,1-1.3,1-1.1,3.6-.9,2.8.2,5.8,3.2t3,6.1a4.29,4.29,0,0,1-2.3,4q-2.3,1.3-7.7.9l-9.4,4.7a19.09,19.09,0,0,0-2.6,2,4.37,4.37,0,0,1-2.7,1.3,4.73,4.73,0,0,1-.9-.1q-5.3-1.6-9.6-8.3a2.29,2.29,0,0,1-.3-1.2q0-.3,1.1-4-1.1-29.1-.4-62a3.47,3.47,0,0,1-.7-2q0-3.3,6.1-4.2a6.13,6.13,0,0,1,3.3.7q1.3.7,2.5,1.3l12-3.8a15.28,15.28,0,0,0,2.3-1.2,5.61,5.61,0,0,1,3-.8,10.91,10.91,0,0,1,1.9.2q2.2.4,4.35,3.45a10.13,10.13,0,0,1,2.15,5.75A3.16,3.16,0,0,1,460.39,14.36Z"/><path class="cls-2" d="M520.39,77.36a9.3,9.3,0,0,1-2.5,6,6.91,6.91,0,0,1-5.7,2.25q-8.5-.5-11.6-8.3a12.11,12.11,0,0,1-.6-3.9,10.14,10.14,0,0,0-1-3.9q-3.7-5.7-6.8-11A180.33,180.33,0,0,1,481,37.16q-.4,10.2,1.6,38.4a9.08,9.08,0,0,0,1,2.7,8.58,8.58,0,0,1,1,3.5,5.16,5.16,0,0,1-1.2,3.3,6,6,0,0,1-5.1,2.2,12.76,12.76,0,0,1-7-2.25q-3.45-2.25-3.85-5.25a3.83,3.83,0,0,1,1.3-3.7q1.6-1.3,1.5-2.3l-3-61.2a8.46,8.46,0,0,0-.2-1.5,8.28,8.28,0,0,1-.2-1.5,2.7,2.7,0,0,1,1.55-2.4,8.72,8.72,0,0,1,4.35-.9q7.5,0,10.7,3.9a3.47,3.47,0,0,1,.9,2.4,8.63,8.63,0,0,1-.2,1.6,8.31,8.31,0,0,0-.2,1.4,1.86,1.86,0,0,0,.1.6q2,10.2,21,42.8l-1.2-48.8a3.83,3.83,0,0,0-.7-2,3.61,3.61,0,0,1-.7-1.7q0-1.3,2-3.3a4.4,4.4,0,0,1,3.4-1.2,13.72,13.72,0,0,1,7.6,2.6q3.9,2.6,4,5.6a3.21,3.21,0,0,1-1.55,3q-1.65,1.1-1.65,2.2l1.4,54.8A6.89,6.89,0,0,0,519,73.71,6.2,6.2,0,0,1,520.39,77.36Z"/></g><path class="cls-3" d="M97.42,36.47c-1.28-9-9.06-9.32-7.53-15.72C93.66,5,80.42,4.5,72.49,4.5c-5.24,0-12.7,5.76-11.76,13.1.78,6.1-4.46.19-8.47,6.29-9.36,14.23,2.82,11.42,2.82,17.82,0,7.18-15,16.77.94,24.11,6,2.77-.11,11.67,3.76,15.72s10.41-2.77,15.05-1c2.82,1,5,9.34,9.62,8S92.7,82.6,92.7,82.6c6.21-13.85,2.26-17.82.94-25.16C91.77,47,100.24,56.38,97.42,36.47Z"/><ellipse class="cls-4" cx="75" cy="44.5" rx="15" ry="14.37"/><path class="cls-5" d="M61,44l1.25-4.38a10.5,10.5,0,0,1,2.67-4.54l.39-.39A9.18,9.18,0,0,1,71.8,32H73l-2.55,1a12.84,12.84,0,0,0-4.31,2.84L66,36a10.93,10.93,0,0,0-1.76,2.31Z"/><g class="cls-1"><path class="cls-2" d="M75.83,41.84a.73.73,0,0,1-.33.59q-.31.22-.31.4t-.1,4.62a38.31,38.31,0,0,1-.39,6.24,1.59,1.59,0,0,1-.83.9,2.32,2.32,0,0,1-1.48.35,3.6,3.6,0,0,1-2-1.22q-.53-.57-2.17-2.72l-.54-.39a.78.78,0,0,1-.27-.68q0-.31.87-.5a7.5,7.5,0,0,1,1.56-.16,1.49,1.49,0,0,1,.61.07,1,1,0,0,1,.43.74,2.15,2.15,0,0,0,.22.84q.16.4.35.81t.46.43q.59,0,.59-6,0-2-.06-4c0-.11,0-.28,0-.49s0-.36,0-.44q0-.76,1.08-.93a2.77,2.77,0,0,1,1.42.4Q75.85,41.3,75.83,41.84Z"/><path class="cls-2" d="M85.63,51.57a3.22,3.22,0,0,1-1,2.35,3.37,3.37,0,0,1-2.48,1,4.71,4.71,0,0,1-4.38-2.41q-1.52-.84-1.52-1.43,0-.29.43-.48a3.72,3.72,0,0,1,1.52-.38,2,2,0,0,1,2,1.51q.24.41.51.83a.81.81,0,0,0,.71.41q1.2,0,1.2-1.44a2.17,2.17,0,0,0-.55-1.74A11.53,11.53,0,0,0,80.11,49a4.44,4.44,0,0,1-2.19-1.65,3.93,3.93,0,0,1-.77-2.22,5.15,5.15,0,0,1,1.1-3.3,3.54,3.54,0,0,1,2.92-1.55,3.32,3.32,0,0,1,3,1.38,4.06,4.06,0,0,1,.69,2.13A3.7,3.7,0,0,1,85,45a1.37,1.37,0,0,1-.1.57,1.19,1.19,0,0,1-1.2.64,2,2,0,0,1-1.22-.41,1.9,1.9,0,0,1-.75-1.25A.68.68,0,0,1,81.9,44a1.52,1.52,0,0,0,.19-.31.09.09,0,0,0,0-.07.74.74,0,0,0,0-.17q0-.52-.71-.48a1.26,1.26,0,0,0-1.08.77,2.72,2.72,0,0,0-.3,1.46q.06,1.46,2.27,2.34a7.35,7.35,0,0,1,2.41,1.36A3.67,3.67,0,0,1,85.63,51.57Z"/></g></svg>