<svg id="Layer_1" data-name="Layer 1" xmlns="http://www.w3.org/2000/svg" viewBox="0 0 522.33 93"><defs><style>.cls-1,.cls-2,.cls-3,.cls-4,.cls-8{isolation:isolate;}.cls-2,.cls-3,.cls-4{font-size:100px;}.cls-2,.cls-3,.cls-4,.cls-8{fill:#1a252f;font-family:MarkerFelt-Thin, Marker Felt;}.cls-3{letter-spacing:0.04em;}.cls-4{letter-spacing:0.02em;}.cls-5{fill:#fff;stroke:#1a252f;stroke-width:2px;}.cls-5,.cls-6{stroke-miterlimit:10;}.cls-6{fill:#ffba14;stroke:#999;stroke-width:0.5px;}.cls-7{fill:#f8de9d;}.cls-8{font-size:17.19px;}</style></defs><title>ck_logo</title><g class="cls-1"><text class="cls-2" transform="translate(0 84.56)"><tspan xml:space="preserve">C  DE</tspan></text><text class="cls-3" transform="translate(189.5 84.56)">K</text><text class="cls-2" transform="translate(249.9 84.56)">ITC</text><text class="cls-4" transform="translate(366.9 84.56)">H</text><text class="cls-2" transform="translate(419.39 84.56)">EN</text></g><path class="cls-5" d="M97.42,36.47c-1.28-9-9.06-9.32-7.53-15.72C93.66,5,80.42,4.5,72.49,4.5c-5.24,0-12.7,5.76-11.76,13.1.78,6.1-4.46.19-8.47,6.29-9.36,14.23,2.82,11.42,2.82,17.82,0,7.18-15.05,16.77.94,24.11,6,2.77-.11,11.67,3.76,15.72s10.41-2.77,15.05-1c2.82,1,5,9.34,9.62,8s8.25-5.94,8.25-5.94c6.21-13.85,2.26-17.82.94-25.16C91.77,46.95,100.24,56.38,97.42,36.47Z"/><ellipse class="cls-6" cx="75" cy="44.5" rx="15" ry="14.37"/><path class="cls-7" d="M61,44l1.25-4.38a10.5,10.5,0,0,1,2.67-4.54l.39-.39A9.18,9.18,0,0,1,71.8,32H73l-2.55,1a12.84,12.84,0,0,0-4.31,2.84L66,36a10.93,10.93,0,0,0-1.76,2.31Z"/><text class="cls-8" transform="translate(67.33 54.42) scale(1.18 1)">JS</text></svg>