<svg id="Layer_1" data-name="Layer 1" xmlns="http://www.w3.org/2000/svg" viewBox="0 0 67 95.5"><defs><style>.cls-1,.cls-2,.cls-6{isolation:isolate;}.cls-2{font-size:100px;}.cls-2,.cls-6{fill:#1a252f;font-family:MarkerFelt-Thin, Marker Felt;}.cls-3{fill:#fff;stroke:#1a252f;stroke-width:2px;}.cls-3,.cls-4{stroke-miterlimit:10;}.cls-4{fill:#ffba14;stroke:#999;stroke-width:0.5px;}.cls-5{fill:#f8de9d;}.cls-6{font-size:17.19px;}</style></defs><title>egg</title><g class="cls-1"><text class="cls-2" transform="translate(-39.5 85.56)"><tspan xml:space="preserve">       E</tspan></text></g><path class="cls-3" d="M57.92,37.47c-1.28-9-9.06-9.32-7.53-15.72C54.16,6,40.92,5.5,33,5.5c-5.24,0-12.7,5.76-11.76,13.1.78,6.1-4.46.19-8.47,6.29C3.4,39.12,15.58,36.31,15.58,42.71c0,7.18-15,16.77.94,24.11,6,2.77-.11,11.67,3.76,15.72s10.41-2.77,15.05-1c2.82,1,5,9.34,9.62,8S53.2,83.6,53.2,83.6c6.21-13.85,2.26-17.82.94-25.16C52.27,48,60.74,57.38,57.92,37.47Z"/><ellipse class="cls-4" cx="35.5" cy="45.5" rx="15" ry="14.37"/><path class="cls-5" d="M21.5,45l1.25-4.38a10.5,10.5,0,0,1,2.67-4.54l.39-.39A9.18,9.18,0,0,1,32.3,33h1.2l-2.55,1a12.84,12.84,0,0,0-4.31,2.84L26.5,37a10.93,10.93,0,0,0-1.76,2.31Z"/><text class="cls-6" transform="translate(27.83 55.42) scale(1.18 1)">JS</text></svg>