<svg id="Layer_1" data-name="Layer 1" xmlns="http://www.w3.org/2000/svg" viewBox="0 0 2491.93 2494.89"><defs><style>.cls-1{fill:#9d7dbf;}</style></defs><title>heroku</title><g id="Page-1"><g id="main"><g id="nav"><path id="logo" class="cls-1" d="M560.95,897.94H59.41A62.65,62.65,0,0,0-3.5,960.85V1534a62.65,62.65,0,0,0,62.91,62.91H560.95A62.65,62.65,0,0,0,623.86,1534V960.85A62.65,62.65,0,0,0,560.95,897.94Zm28,636.09a27.6,27.6,0,0,1-28,28H59.41a27.6,27.6,0,0,1-28-28V960.85a27.6,27.6,0,0,1,28-28H560.95a27.6,27.6,0,0,1,28,28V1534Zm-435.13-41.94,78.64-69.9-78.64-69.9ZM436.87,1209c-14-14-40.19-31.46-83.88-31.46-47.18,0-96.11,12.23-131.06,24.47V1002.79H153.78v302.32l48.93-22.72s80.38-36.7,150.29-36.7c35,0,43.69,19.22,43.69,36.7v209.7h69.9v-209.7C466.58,1277.15,466.58,1238.71,436.87,1209Zm-92.62-92.62h69.9c31.45-36.7,47.18-73.39,52.43-113.59h-69.9C389.69,1043,372.22,1079.68,344.26,1116.38Zm1931,164.26V1125.12h69.9V1278.9c0,35,12.23,52.43,40.19,52.43s38.44-15.73,38.44-52.43V1125.12h68.15v155.53c0,68.15-33.2,108.34-108.34,108.34S2275.24,1348.8,2275.24,1280.65Zm-293.58-153.78h69.9v94.37l71.65-94.36h80.38l-87.38,101.35,94.37,157.28h-78.64l-61.16-103.1-19.22,22.72v80.39h-69.9V1126.87Zm-332,127.57c0-94.36,64.66-134.56,127.57-134.56s127.57,40.19,127.57,134.56S1840.12,1389,1777.21,1389,1649.64,1350.55,1649.64,1254.43Zm183.49,0c0-47.18-21-76.89-57.67-76.89s-57.67,29.71-57.67,76.89,21,78.64,57.67,78.64S1833.13,1303.36,1833.13,1254.43Zm-464.83-127.57h101.36c66.41,0,106.6,22.72,106.6,83.88,0,40.19-17.47,64.66-50.68,75.14l54.17,99.61h-73.39l-50.68-89.12h-19.22v89.12h-68.15V1126.87Zm99.61,115.33c28,0,41.94-8.74,41.94-29.71s-12.23-29.71-41.94-29.71h-29.71v59.41h29.71Zm-367-115.34h185.23v57.67H1170.82v41.94H1253v54.17h-82.13v47.18H1291.4v55.92H1100.92V1126.87Zm-316.3,0h69.9V1223h85.63v-96.11h69.9V1385.5h-69.9V1280.65H854.53V1385.5h-69.9V1126.87Z"/></g></g></g></svg>