<svg id="Layer_1" data-name="Layer 1" xmlns="http://www.w3.org/2000/svg" viewBox="0 0 419.58 419.8"><defs><style>.cls-1{fill:#131b28;}</style></defs><title>jquery</title><path class="cls-1" d="M119.88,197h0l-3.35,11.88L119.88,197Z"/><path class="cls-1" d="M137.12,222.76l-3.69,0Z"/><path class="cls-1" d="M136.17,240.5h0l-22.13.08,22.13-.08Z"/><path class="cls-1" d="M140.81,222.78l-3.7,0Z"/><path class="cls-1" d="M138.11,239l3.85-14.7L138.11,239h0Z"/><path class="cls-1" d="M219.59,171.29l-7.18,33.76Z"/><path class="cls-1" d="M201.13,171.29l-5.45,25.22,5.45-25.22Z"/><path class="cls-1" d="M218.36,169.77H203a2,2,0,0,0-1.88,1.52l-5.45,25.22-5.45,25.22a2,2,0,0,1-1.88,1.51H177.47c-10.75,0-9.51-7.44-7.31-17.63l.07-.31.24-1.28,0-.24.49-2.61.53-2.8c.16-.84.4-2.08.56-2.86l2.48-12.11,2.48-12.11a1.22,1.22,0,0,0-1.24-1.52H160.05a2,2,0,0,0-1.87,1.52l-3.39,16.08-3.39,16.08v0l-.31,1.49c-3.9,17.82-2.87,34.82,18.35,35.35h33.92a2,2,0,0,0,1.87-1.52l7.18-33.76,7.18-33.76a1.21,1.21,0,0,0-1.23-1.52Z"/><path class="cls-1" d="M279.62,223.42a1.22,1.22,0,0,1,1.24,1.52l-1.49,7.29"/><path class="cls-1" d="M277.88,239.52l1.49-7.29-1.49,7.29h0Z"/><path class="cls-1" d="M276,241.05h0c-4.52,0-18.1.14-28.31.14,12.42,0,28.3-.14,28.3-.14Z"/><path class="cls-1" d="M238.55,214c0-.8.9-2.17,1.75-2.17l-1.92,0c-.86,8.69.17,2.2.17,2.2Z"/><path class="cls-1" d="M249.11,241.19h0Z"/><path class="cls-1" d="M279.62,223.42a1.22,1.22,0,0,1,1.24,1.52l-1.49,7.29-.24,1.19"/><path class="cls-1" d="M251.46,241.19h0Z"/><path class="cls-1" d="M252.39,241.18h0Z"/><path class="cls-1" d="M256.32,241.17h0Z"/><path class="cls-1" d="M276,241.05h0c-3.31,0-11.49.09-19.65.12C264.53,241.14,272.71,241.08,276,241.05Z"/><path class="cls-1" d="M277.88,239.52l1.25-6.11-1.25,6.11h0Z"/><path class="cls-1" d="M25.34,214.22l2.39-10.57L25,215.73,22.39,228l2.29-10.79c.18-.83.48-2.2.67-3Z"/><path class="cls-1" d="M53.89,169.59H37a2,2,0,0,0-1.89,1.51l-1.6,7.06-1.6,7.06a1.19,1.19,0,0,0,1.21,1.51h17A2,2,0,0,0,52,185.22l1.55-7.06,1.55-7.05h0a1.2,1.2,0,0,0-1.22-1.51Z"/><path class="cls-1" d="M50.22,193.07h0L45.28,216Z"/><path class="cls-1" d="M1.23,268.89s8.5.11,13.9.11c-4.11,0-10.89-.08-13.91-.11h0Z"/><path class="cls-1" d="M30.11,193.07l-2.39,10.57Z"/><path class="cls-1" d="M49,191.56H32a2,2,0,0,0-1.89,1.51l-2.39,10.57-2.39,10.57c-.19.83-.49,2.2-.67,3L22.38,228l-2.29,10.79c-.18.83-.54,2.18-.82,3,0,0-3.17,9.45-8.51,9.34h-.67l-4.62-.09h0a2,2,0,0,0-1.91,1.48L1.8,260,0,267.36a1.19,1.19,0,0,0,1.18,1.53c3,0,9.81.11,13.91.11,13.33,0,20.36-7.39,24.87-28.65L45.28,216l4.95-22.88A1.2,1.2,0,0,0,49,191.56Z"/><path class="cls-1" d="M290.45,240.33a1.21,1.21,0,0,1-1.23-1.52L302,178.92"/><path class="cls-1" d="M308.22,238.8l5.17-25.56Z"/><path class="cls-1" d="M289.41,239.57a6.61,6.61,0,0,1,.14-2.28l6.07-28.43-6.39,29.94a1.21,1.21,0,0,0,1.23,1.52H292c-.85,0-2.49-.34-2.59-.76Z"/><path class="cls-1" d="M307.21,240a8,8,0,0,1-2.4.34h1.55a2,2,0,0,0,1.86-1.52l.31-1.52c-.17.83-.86,2.51-1.32,2.7Z"/><path class="cls-1" d="M310.81,226l2.28-11.28v0L310.81,226Z"/><path class="cls-1" d="M361.26,182.93l.7,2.91a1.18,1.18,0,0,1-1.2,1.51"/><path class="cls-1" d="M308.53,237.29,310.81,226Z"/><path class="cls-1" d="M360.56,179.95l.7,3Z"/><path class="cls-1" d="M313.09,214.74c.17-.83.45-2.19.63-3l2.44-11.42-2.76,12.94-.3,1.5Z"/><path class="cls-1" d="M302.22,177.94l-.53,2.5-6.07,28.43L302,178.92l.21-1Z"/><path class="cls-1" d="M362,185.84l-.7-2.91-.7-3-.35-1.51c-1.38-5.36-5.43-8.46-14.23-8.46H305.46a2,2,0,0,0-1.87,1.52h0l-.63,3-.74,3.5-.21,1-6.39,29.95-6.07,28.43a6.61,6.61,0,0,0-.14,2.28c.1.42,1.74.76,2.59.76h12.81a8,8,0,0,0,2.4-.34c.47-.19,1.15-1.86,1.32-2.7L310.81,226l2.28-11.26v0l.3-1.5,2.76-12.94,2.44-11.43a2,2,0,0,1,1.87-1.51l40.3,0a1.18,1.18,0,0,0,1.2-1.51Z"/><path class="cls-1" d="M413.84,159.52h-16a3.3,3.3,0,0,0-2.43,1.28L366.89,202.6c-.48.71-1,.6-1.22-.23l-2.1-9.21a2,2,0,0,0-1.9-1.51H343.34a1.11,1.11,0,0,0-1.13,1.49l8.22,28.78a6.79,6.79,0,0,1,0,3l-3.58,13.93a1.15,1.15,0,0,0,1.17,1.5h18.12a2.11,2.11,0,0,0,1.93-1.5l3.58-13.93a9.26,9.26,0,0,1,1.32-2.74l46.31-61.46c.51-.68.24-1.24-.62-1.23l-4.86,0Z"/><path class="cls-1" d="M268.16,195.57v0a1.87,1.87,0,0,1-1.81,1.6H243.1a1,1,0,0,1-1.09-1.22.2.2,0,0,1,0-.05h0s0-.05,0-.08l.11-.4c2.22-5.9,6.74-9.78,15.24-9.78,9.57,0,11.44,4.68,10.79,9.93Zm-6.82-26.83c-29.84,0-36.91,18.11-40.88,36.39-4,18.63-3.63,36.06,27.25,36.06h8.66c8.16,0,16.33-.09,19.65-.12a2,2,0,0,0,1.85-1.52l1.25-6.11.24-1.19,1.49-7.29a1.22,1.22,0,0,0-1.24-1.52H251.86c-11,0-14.32-2.93-13.11-11.56h44.4a1.83,1.83,0,0,0,1.62-1.15,1.63,1.63,0,0,0,.11-.39h0c6.59-24.85,4.7-41.59-23.53-41.59Z"/><path class="cls-1" d="M120.3,195.48l-.42,1.49h0l-3.35,11.88-3.35,11.87a2.17,2.17,0,0,1-2,1.49H93.47c-13.45,0-16.73-10.52-13.45-26,3.28-15.87,9.7-25.74,22.94-26.74,18.09-1.36,21.71,11.36,17.35,26.05Zm12.16,25.82s8.36-20.3,10.26-32c2.6-15.7-5.26-38.47-35.62-38.47-30.19,0-43.3,21.74-48.3,45.37-5,23.8,1.55,44.68,31.57,44.5l23.68-.09,22.13-.08a2.14,2.14,0,0,0,1.94-1.51L142,224.29a1.15,1.15,0,0,0-1.16-1.51l-3.7,0-3.69,0a1,1,0,0,1-1.05-1.1,1.43,1.43,0,0,1,.09-.35Z"/><path class="cls-1" d="M281.9,207.71a1,1,0,1,1-1-1A1,1,0,0,1,281.9,207.71Z"/></svg>