<svg id="Capa_1" data-name="Capa 1" xmlns="http://www.w3.org/2000/svg" xmlns:xlink="http://www.w3.org/1999/xlink" viewBox="0 0 680.25 694.26"><defs><style>.cls-1{fill:url(#linear-gradient);}.cls-2{fill:#a3cd3a;}.cls-3{fill:#fff;}.cls-4{fill:none;}</style><linearGradient id="linear-gradient" x1="340.13" y1="678.59" x2="340.13" y2="679.72" gradientUnits="userSpaceOnUse"><stop offset="0" stop-color="#fff" stop-opacity="0"/><stop offset="0.99" stop-color="#a3cd3a"/></linearGradient></defs><title>mail</title><path class="cls-1" d="M314.64,679.31q12.62-.94,25.49-.95t25.49.95Z"/><path class="cls-2" d="M365.62,679.31c175.94-13,314.63-159.91,314.63-339.18C680.25,152.28,528,0,340.13,0S0,152.28,0,340.13C0,519.4,138.69,666.27,314.64,679.31Z"/><path class="cls-3" d="M142.36,486.09H537.9a14.48,14.48,0,0,0,14.46-14.46v-263a14.35,14.35,0,0,0-2.57-8.2l-209.86,181-209.44-181a14.4,14.4,0,0,0-2.58,8.25v263A14.48,14.48,0,0,0,142.36,486.09Z"/><path class="cls-3" d="M546,196.65a14.42,14.42,0,0,0-8.1-2.49H142.36a14.34,14.34,0,0,0-8.07,2.48L339.92,374.38Z"/><path class="cls-3" d="M550.08,200.89l-.38-.38.08-.08A4.09,4.09,0,0,1,550.08,200.89Z"/><path class="cls-3" d="M546,196.64l-.08.08-.33-.33Z"/><line class="cls-4" x1="549.71" y1="200.51" x2="545.92" y2="196.72"/></svg>