<svg id="Layer_1" data-name="Layer 1" xmlns="http://www.w3.org/2000/svg" viewBox="0 0 2500 2505"><defs><style>.cls-1{fill:#8e714e;}.cls-2{fill:#442d22;}.cls-3{fill:#fff;}.cls-4{fill:#a6a385;}.cls-5{fill:#499d4a;}.cls-6{fill:#58aa50;}.cls-7{isolation:isolate;font-size:549.18px;fill:#860309;font-family:Helvetica-Light, Helvetica;}.cls-8{font-size:470px;font-family:MyriadPro-Regular, Myriad Pro;}</style></defs><title>mongodb</title><path class="cls-1" d="M2329.12,320.1c-2.25.45-4.5,5.41-4.5,8.11-.45,18-.9,65.79-.9,98.23,0,.9,1.35,2.71,2.7,2.71,6.76.45,23,.9,36.95.9,19.37,0,30.64-2.7,37-5.4,16.22-8.12,23.88-25.69,23.88-45.07,0-43.7-30.64-60.38-76.15-60.38a72.28,72.28,0,0,0-18.93.9Zm116.3,201.42c0-44.61-32.9-69.39-92.37-69.39-2.71,0-21.63-.45-26.14.45-1.35.45-3.15,1.36-3.15,2.71,0,32-.45,82.91.9,102.73.9,8.56,7.21,20.73,14.87,24.33,8.11,4.51,26.58,5.41,39.2,5.41,35.6,0,66.69-19.82,66.69-66.24Zm-208.17-226.2c4.5,0,18,1.35,52.71,1.35,32.9,0,59-.9,91-.9,39.2,0,93.27,14,93.27,72.54,0,28.84-20.28,51.82-46.86,63.09-1.35.45-1.35,1.35,0,1.8,37.85,9.47,71.2,32.9,71.2,77.05,0,43.26-27,70.75-66.24,87.87-23.88,10.36-53.62,14-83.81,14-23,0-84.71-2.7-119-1.8-3.6-1.36,3.15-17.58,6.3-20.28,8.12-.45,14.42-.9,23-3.61,12.17-3.15,13.52-6.76,15.32-25.23.9-15.77.9-71.65.9-111.3,0-54.52.45-91.47,0-109.49-.45-14-5.41-18.48-15.32-21.18-7.67-1.35-20.28-3.15-30.64-4.5-2.26-2.26,5.41-17.58,8.12-19.37Zm-260,280.27c10.82,8.55,32,12.16,50.92,12.16,24.33,0,48.66-4.5,72.09-25.68,23.88-21.62,40.55-55,40.55-108.13,0-50.92-19.37-92.38-59-116.7-22.53-14-51.37-19.82-84.71-19.82-9.91,0-19.37.45-25.23,3.15-1.36.9-4.51,5-4.51,7.21-.9,9-.9,78.4-.9,119,0,41.9,0,100.48.9,107.24,0,6.76,3.15,17.12,9.91,21.63ZM1874.92,295.32c8.56,0,41.46,1.35,57.23,1.35,28.39,0,48.67-1.35,102.29-1.35,45.06,0,82.91,12.16,109.95,35.14,32.89,28.39,50,67.59,50,115.35,0,68-31.09,107.25-62.19,129.78-31.08,23-71.64,36.49-129.32,36.49-30.64,0-83.36-.9-127.07-1.35h-.39c-2.25-4.05,3.6-19.82,7.21-20.27,11.72-1.35,14.87-1.81,20.73-4.05,9.46-3.61,11.26-8.56,12.62-25.23,1.35-31.09.9-68.49.9-110.85,0-30.19.45-89.22-.45-108.14-1.35-15.77-8.11-19.82-21.63-22.53-6.76-1.35-15.77-3.15-28.38-4.5-1.81-3.16,6.3-17.12,8.55-19.82Z"/><path class="cls-2" d="M1329.71,593.16c-11.26-1.35-19.37-3.15-29.29-7.66-1.35-.9-3.61-5.41-3.61-7.21-.9-15.77-.9-60.83-.9-91,0-24.34-4.05-45.51-14.42-60.38-12.17-17.13-29.74-27-52.27-27-19.82,0-46.41,13.52-68.49,32.44-.45.45-4.05,3.61-3.6-1.35,0-5,.9-14.87,1.35-21.63.45-6.31-3.15-9.46-3.15-9.46-14.42,7.21-55,16.67-69.84,18-10.81,2.26-13.52,12.62-2.25,16.23h.45c12.16,3.6,20.27,7.66,26.58,11.72,4.51,3.6,4.06,8.56,4.06,12.62.45,33.79.45,85.61-.9,114-.45,11.26-3.6,15.32-11.72,17.12l.9-.45c-6.31,1.35-11.26,2.7-18.93,3.6-2.71,2.71-2.71,17.12,0,20.28,5,0,31.09-1.35,52.72-1.35,29.74,0,45.06,1.35,52.71,1.35,3.15-3.6,4.06-17.12,2.26-20.28-8.56-.45-14.87-1.35-20.73-3.15-8.11-1.81-10.37-5.85-10.82-15.32-.89-23.89-.89-74.35-.89-108.59,0-9.46,2.7-14,5.4-16.67,10.37-9,27-15.32,41.91-15.32,14.42,0,23.88,4.51,31.09,10.37,9.91,8.11,13.07,19.82,14.42,28.38,2.25,19.38,1.35,57.68,1.35,91,0,18-1.35,22.53-8.11,24.78-3.16,1.35-11.27,3.16-20.73,4.05-3.15,3.16-2.25,17.13,0,20.28,13.07,0,28.39-1.35,50.92-1.35,27.93,0,46,1.35,53.17,1.35,2.25-2.71,3.15-15.77,1.35-19.38ZM1454.52,421c-23.88,0-38.75,18.47-38.75,47.3,0,29.29,13.07,63.09,50,63.09,6.31,0,18-2.71,23.43-9,8.56-8.11,14.42-24.33,14.42-41.46,0-37.4-18.48-59.93-49.12-59.93Zm-3.15,199.16a38.73,38.73,0,0,0-19.37,5c-18.93,12.16-27.49,23.88-27.49,37.85,0,13.06,5,23.42,15.77,32.44,13.07,11.26,31.09,16.67,54.07,16.67,46,0,66.24-24.79,66.24-49.11,0-17.13-8.56-28.39-26.13-34.7-12.62-5.41-35.6-8.12-63.09-8.12Zm3.15,117.16c-27.49,0-47.31-5.86-64.43-18.93-16.67-12.62-23.88-31.54-23.88-44.61a34.52,34.52,0,0,1,9-22.53c5-5.41,15.77-15.77,41.46-33.34.9-.45,1.35-.9,1.35-1.81a3,3,0,0,0-1.8-2.25c-21.18-8.11-27.49-21.18-29.29-28.39v-.9c-.44-2.71-1.35-5.41,2.71-8.11,3.15-2.25,7.66-5,12.61-8.11,7.66-4.51,15.77-9.47,20.73-13.53a3.29,3.29,0,0,0,.9-2.7,3,3,0,0,0-1.81-2.25c-31.53-10.37-47.3-33.8-47.3-68.95,0-23,10.36-43.71,28.83-56.77,12.62-9.91,44.16-22.08,64.89-22.08h1.35c21.18.45,32.89,5,49.56,10.82,9,3.15,17.58,4.5,29.3,4.5,17.57,0,25.23-5.41,31.53-11.71.45.9,1.36,3.15,1.81,9a34,34,0,0,1-5.86,20.73c-3.6,5-11.71,8.56-19.82,8.56h-2.26a100.41,100.41,0,0,1-11.72-1.81l-1.8.9c-.45.9,0,1.8.45,3.15l.45.9c.9,4.05,2.7,16.22,2.7,19.38,0,36.95-14.87,53.16-30.64,65.33a103.76,103.76,0,0,1-52.72,20.28,56.76,56.76,0,0,0-6.31.45c-2.25,0-5.41.45-5.86.45h-.45c-3.6.9-12.61,5.41-12.61,13.06,0,6.76,4.05,14.87,23.43,16.23,4.05.45,8.11.45,12.62.9,25.68,1.8,57.68,4.05,72.54,9,20.73,7.66,33.79,26.13,33.79,48.21,0,33.35-23.88,64.44-63.53,83.81-19.37,8.56-38.75,13.07-59.93,13.07ZM1711.36,423.3c-9.46,0-18,2.25-24.33,6.75-17.57,10.82-26.58,32.45-26.58,64,0,59,29.74,100.49,72.09,100.49,12.62,0,22.53-3.61,31.09-10.82,13.07-10.82,19.83-32.45,19.83-62.64,0-58.57-29.29-97.78-72.09-97.78Zm8.12,192.85c-76.6,0-104.09-56.32-104.09-109,0-36.95,14.87-65.34,44.6-85.62,21.18-13.07,46.42-20.27,68.95-20.27,58.57,0,99.58,41.9,99.58,102.29,0,41-16.22,73.44-47.31,93.27-14.87,9.91-40.55,19.38-61.73,19.38h0Zm-803-192.86c-9.46,0-18,2.25-24.34,6.76-17.57,10.82-26.58,32.45-26.58,64,0,59,29.74,100.49,72.09,100.49,12.62,0,22.53-3.61,31.09-10.82,13.06-10.82,19.82-32.45,19.82-62.64,0-58.57-28.84-97.78-72.09-97.78Zm8.11,192.86c-76.6,0-104.09-56.32-104.09-109,0-36.95,14.87-65.34,44.6-85.62,21.18-13.07,46.42-20.27,69-20.27,58.58,0,99.58,41.9,99.58,102.29,0,41-16.22,73.44-47.31,93.27-14.42,9.91-40.1,19.38-61.73,19.38Zm-515-4.51c-.9-1.35-1.81-5.41-1.35-10.36a15.22,15.22,0,0,1,1.35-6.76,166.21,166.21,0,0,0,19.82-4.06c9-2.26,12.62-7.21,13.07-18.47,1.36-27,1.36-78.41.9-114v-.9c0-4.05,0-9-5-12.62a101.81,101.81,0,0,0-27-11.72c-4-1.34-6.76-3.6-6.31-6.3,0-2.71,2.71-5.86,8.56-6.76,14.87-1.35,53.61-10.81,68.94-17.57a11.17,11.17,0,0,1,2.26,7.21l-.45,5c-.45,5-.9,10.82-.9,16.67a3.49,3.49,0,0,0,3.6,3.15,6.35,6.35,0,0,0,2.71-.9c28.84-22.53,55-30.64,68.49-30.64,22.08,0,39.21,10.37,52.28,32a3.39,3.39,0,0,0,3.15,1.81,3.21,3.21,0,0,0,2.7-1.35c26.59-20.28,53.17-32.45,70.74-32.45,41.9,0,66.69,31.09,66.69,83.81,0,14.87,0,34.24-.45,51.82,0,15.77-.45,30.19-.45,40.55,0,2.25,3.15,9.46,8.11,10.81,6.31,3.15,14.87,4.51,26.14,6.31h.45c.9,3.15-.9,14.87-2.7,17.12a110.74,110.74,0,0,1-11.26-.45q-17.11-.89-34.25-.9c-27.93,0-42.35.45-56.33,1.35-.89-3.6-1.35-14.42,0-17.12a139.9,139.9,0,0,0,17.13-4.05c9-2.71,11.26-6.76,11.72-18.48,0-8.56,1.8-81.56-.91-99.13-2.7-18-16.22-39.2-46-39.2-11.26,0-28.83,4.51-46,17.57a8,8,0,0,0-1.81,4.51v.45C619,467,619,477.87,619,494.54v29.28c0,20.28-.45,39.2,0,53.62,0,9.92,5.86,12.17,10.82,14,2.71.44,4.5.9,6.76,1.35,4,.9,8.11,1.81,14.42,3.15.9,1.81.9,7.66-.45,12.62a8.64,8.64,0,0,1-1.81,4.51c-15.32-.45-31.09-.9-54.07-.9-6.76,0-18.48.45-28.39.45-8.12,0-15.77.45-20.27.45-.45-.9-1.36-4.05-1.36-9,0-4.05.9-7.21,1.81-8.11a30.47,30.47,0,0,1,6.31-.9c5.4-.9,9.91-1.81,14.41-2.71,7.67-2.25,10.37-6.31,10.82-16.22,1.35-22.53,2.71-87-.45-103.19-5.41-26.13-20.27-39.2-44.16-39.2-14,0-31.54,6.76-46,17.58-2.26,1.8-4.06,6.3-4.06,10.36v26.59c0,32.44,0,73,.45,90.57.45,5.4,2.25,11.71,12.62,14a94.35,94.35,0,0,0,10.37,1.81l8.11,1.35c.91,2.71.45,13.52-1.35,17.12-4.51,0-9.91-.45-16.23-.45-9.46-.45-21.63-.9-35.14-.9-15.77,0-27,.45-36,.9a108.86,108.86,0,0,0-16.67-.9Z"/><path class="cls-3" d="M172.58,719.82l-18.47-6.31s2.26-94.17-31.54-100.93c-22.52-26.14,3.61-1108.46,84.72-3.61,0,0-27.94,14-32.9,37.85-5.41,23.43-1.81,73-1.81,73Z"/><path class="cls-4" d="M172.58,719.82l-18.47-6.31s2.26-94.17-31.54-100.93c-22.52-26.14,3.61-1108.46,84.72-3.61,0,0-27.94,14-32.9,37.85-5.41,23.43-1.81,73-1.81,73Z"/><path class="cls-3" d="M182.49,628.76S344.26,522.42,306.42,301.17C269.91,140.32,183.85,87.6,174.42,67.32c-10.36-14.42-20.28-39.65-20.28-39.65L160.9,475.1c0,.45-14,137,21.63,153.66"/><path class="cls-5" d="M182.49,628.76S344.26,522.42,306.42,301.17C269.91,140.32,183.85,87.6,174.42,67.32c-10.36-14.42-20.28-39.65-20.28-39.65L160.9,475.1c0,.45-14,137,21.63,153.66"/><path class="cls-3" d="M144.65,634.62S-7.21,531,1.81,348.49C10.37,166,117.61,76.33,138.34,60.11c13.52-14.42,14-19.83,14.87-34.25,9.46,20.28,7.66,303.25,9,336.59C166.27,490.88,155,610.29,144.65,634.62Z"/><path class="cls-6" d="M144.65,634.62S-7.21,531,1.81,348.49C10.37,166,117.61,76.33,138.34,60.11c13.52-14.42,14-19.83,14.87-34.25,9.46,20.28,7.66,303.25,9,336.59C166.27,490.88,155,610.29,144.65,634.62Z"/><text class="cls-7" transform="translate(36.66 2350.98) scale(0.93 1)">mongoose</text><text class="cls-8" transform="translate(1119.57 1459.69)">&amp;</text><text></text></svg>