<svg id="Capa_1" data-name="Capa 1" xmlns="http://www.w3.org/2000/svg" xmlns:xlink="http://www.w3.org/1999/xlink" viewBox="0 0 706.46 707.96"><defs><style>.cls-1{fill:url(#linear-gradient);}.cls-2{fill:#a3cd3a;}.cls-3{fill:#fff;}</style><linearGradient id="linear-gradient" x1="352.16" y1="693.69" x2="352.16" y2="694.24" gradientUnits="userSpaceOnUse"><stop offset="0" stop-color="#fff" stop-opacity="0"/><stop offset="0.99" stop-color="#a3cd3a"/></linearGradient></defs><title>phone</title><path class="cls-1" d="M364.84,693.81q-6.32.23-12.68.23t-12.69-.24q6.31-.22,12.68-.23T364.84,693.81Z"/><path class="cls-2" d="M692.28,353.92c0,183.6-145.48,333.22-327.44,339.89q-6.32.23-12.68.23t-12.69-.24C157.5,687.13,12,537.51,12,353.92,12,166.08,164.31,13.79,352.16,13.79S692.28,166.08,692.28,353.92Z"/><path class="cls-3" d="M351.88,545.65c25,17.54,45.76,21.22,58.75,21.22a57.32,57.32,0,0,0,14.47-1.72c-7.51-14-46.54-87.12-57.93-114.29-7.26,5-13.47,7.39-19,7.39-6.26,0-11.44-3.19-15.41-9.47C283.16,389,271,325,270.27,321.26c-6.45-19.77-1.28-31.91,4.18-38.62a33.4,33.4,0,0,1,11.77-9.12L246.67,148.29c-20.61,6.65-41.17,20.8-42.33,70.28,0,65.75,7.7,114.36,24.95,157.52C263.22,461.08,321.19,524,351.88,545.65Z"/><path class="cls-3" d="M330.34,245.48c10.94-29-7.45-69.06-13.35-80.66C307,145.11,291.56,141,280.4,141a47.4,47.4,0,0,0-11.61,1.46c4.18,14,28.17,94.32,39.39,126C318.95,263.63,326.4,255.92,330.34,245.48Z"/><path class="cls-3" d="M469.59,505.74c-13.87-25.24-30-57-31.14-59.2a30.78,30.78,0,0,0-25-12.18c-7.18,0-14.94,2.2-23.11,6.54l60.27,113C457.71,548,481,526.52,469.59,505.74Z"/><path class="cls-3" d="M369.25,238.05h0c.73,0,73.31,0,107.91,67.73,22,43.14,20.33,78.77,15,101.07-5.76,24.19-16.89,38.38-17,38.52a2.19,2.19,0,1,0,3.42,2.72c.47-.6,11.76-14.94,17.78-40,5.53-23.06,7.37-59.87-15.33-104.3a125.9,125.9,0,0,0-69.49-61.67c-23.12-8.55-41.6-8.44-42.37-8.45a2.19,2.19,0,0,0,0,4.38Z"/><path class="cls-3" d="M448.27,418.11a2.21,2.21,0,0,0,1.36.48,2.17,2.17,0,0,0,1.71-.82c.33-.41,32.85-42.31,1.81-103.08-25.6-50.1-79.37-50.07-79.93-50.1a2.19,2.19,0,0,0,0,4.39c.56,0,51.66.07,76,47.71,29.71,58.16-1,98-1.34,98.36A2.19,2.19,0,0,0,448.27,418.11Z"/></svg>