<svg id="Layer_1" data-name="Layer 1" xmlns="http://www.w3.org/2000/svg" viewBox="0 0 2176.29 2176.29"><defs><style>.cls-1{fill:#8ed6fb;}.cls-2{fill:#1c78c0;}</style></defs><title>webpack</title><path class="cls-1" d="M1995.64,1670l-871,492.71V1779l542.71-298.54Zm59.58-54V585.64l-318.75,184v662.29l318.75,184.17ZM177.1,1670l871,492.71V1779L505.44,1480.44,177.1,1670Zm-59.58-54V585.64l318.75,184v662.29L117.52,1616.06ZM154.81,519,1048.14,13.56v371L475.85,699.39l-4.38,2.5Zm1863.13,0L1124.6,13.56v371l572.29,314.79,4.37,2.5Z"/><path class="cls-2" d="M1048.14,1691.69,512.73,1397.31V814l535.42,309.17v568.54m76.46,0L1660,1397.31V814L1124.6,1123.14v568.54M549,746.48l537.5-295.62L1624,746.48l-537.5,310.42L549,746.48"/></svg>