<svg id="svg3476" xmlns="http://www.w3.org/2000/svg" viewBox="0 0 409.81 409.07"><defs><style>.cls-1{fill:#264de4;}.cls-2{fill:#2965f1;}.cls-3{fill:#ebebeb;}.cls-4{fill:#fff;}</style></defs><title>css</title><g id="layer1"><g id="g3013"><polygon id="polygon2989" class="cls-1" points="350 80.23 323.56 376.39 204.73 409.34 86.22 376.44 59.81 80.23 350 80.23"/><polygon id="polygon2991" class="cls-2" points="300.93 357.53 323.52 104.45 204.91 104.45 204.91 384.15 300.93 357.53"/><polygon id="polygon2993" class="cls-3" points="120.35 214.31 123.61 250.64 204.91 250.64 204.91 214.31 120.35 214.31"/><polygon id="polygon2995" class="cls-3" points="204.91 140.78 204.78 140.78 113.81 140.78 117.11 177.11 204.91 177.11 204.91 140.78"/><polygon id="polygon2997" class="cls-3" points="204.91 346.45 204.91 308.66 204.75 308.7 164.29 297.78 161.7 268.8 142.04 268.8 125.23 268.8 130.32 325.84 204.74 346.5 204.91 346.45"/><path id="path2999" d="M128.11-.26h44v18.4h-25.6v18.4h25.6v18.4h-44Z"/><path id="path3001" d="M180.91-.26h44v16h-25.6v3.2h25.6v36.8h-44V38.94h25.6v-3.2h-25.6Z"/><path id="path3003" d="M233.71-.26h44v16h-25.6v3.2h25.6v36.8h-44V38.94h25.6v-3.2h-25.6Z"/><polygon id="polygon3005" class="cls-4" points="249.51 250.64 245.3 297.75 204.78 308.69 204.78 346.48 279.26 325.84 279.8 319.7 288.34 224.06 289.23 214.31 295.78 140.78 204.78 140.78 204.78 177.11 255.97 177.11 252.67 214.31 204.78 214.31 204.78 250.64 249.51 250.64"/></g></g></svg>