<svg id="Layer_1" data-name="Layer 1" xmlns="http://www.w3.org/2000/svg" viewBox="0 0 462.21 462"><defs><style>.cls-1{fill:#423426;}.cls-2{fill:#bab4b1;}.cls-3{isolation:isolate;font-size:89px;font-family:ChalkboardSE-Bold, Chalkboard SE;font-weight:700;}.cls-4{letter-spacing:0.05em;}.cls-5{letter-spacing:-0.06em;}.cls-6{letter-spacing:0em;}.cls-7{letter-spacing:-0.02em;}.cls-8{letter-spacing:-0.01em;}.cls-9{letter-spacing:0.02em;}</style></defs><title>handlebars</title><path class="cls-1" d="M122.11,170.76c14.14-9.48,30.8-15.89,48-15.81,16.07-.07,32.55,4.54,45,14.93a75.81,75.81,0,0,1,16,18.6c7.9-12.77,19.44-23.62,33.67-28.85,17.34-6.51,36.94-6.06,54.25.32,15.12,5.52,28.34,15.14,40.33,25.72C368.73,194,377.41,203,387.07,211c5.09,4.13,10.56,8,16.82,10.14A23.45,23.45,0,0,0,428,214.87c5.51-6,5.17-16.37-.9-21.85-3.86-3.33-10.46-2.66-13.19,1.78-2.39,3.52-1,7.91.82,11.32-5-3.63-10-8.69-9.93-15.29-1-7.63,4.63-14.36,11.41-17,13.23-5.29,29.82-.73,38.17,10.92,8,10.87,8.67,25.16,7.27,38.11a45.6,45.6,0,0,1-18.77,30.9c-14.32,10.22-32.47,13.39-49.74,13.17a140.13,140.13,0,0,1-48.41-10.4c-25.72-10.34-49.79-24.63-76.35-32.89a91.57,91.57,0,0,0-27.6-5.84c0,55.4-.1,110.81,0,166.22-.07,18.46.17,36.94-.11,55.39-.14-2.15-.27-4.3-.32-6.44q.24-107.67,0-215.33c-7.1.11-14.21-.24-21.29.24a94,94,0,0,0-25.32,5.77c-27,8.4-51.44,23.05-77.65,33.41C94,265.64,69.47,269.64,46,264.86,32.84,262.2,19.76,256.39,10.89,246,3.3,237.24-.34,225.46,0,213.92-.4,203,2,191.46,9.19,183A33,33,0,0,1,37,171.78c6.67.31,13.43,3.22,17.55,8.59,3.24,4.25,3.44,10.07,2,15-1.73,4.47-5.3,8-9.18,10.64,2-3.34,3.18-7.75.84-11.24-2.88-4.65-10-5.12-13.72-1.3A16.1,16.1,0,0,0,32,211.8c3.36,6.1,10.31,9.58,17,10.29,10.18.88,19-5.43,26.48-11.55C91,197.25,105,182,122.11,170.76Z"/><path class="cls-2" d="M219.09,217.85c7.08-.48,14.19-.13,21.29-.24V432.94c.05,2.14.18,4.29.32,6.44,0,1.31-1,2.3-1.69,3.26l-.15.19c-3.33,5.46-11.63,5.57-16.08,1.5-3-2.9-3.74-7.38-3.68-11.38,0-49,.58-98,.17-147Q219,251.89,219.09,217.85Z"/><path class="cls-1" d="M238.8,453.89l.15-.19Z"/><text class="cls-3" transform="translate(-0.02 91)">ha<tspan class="cls-4" x="100.01" y="0">n</tspan><tspan x="151.44" y="0">d</tspan><tspan class="cls-5" x="204.84" y="0">l</tspan><tspan class="cls-6" x="228.64" y="0">e</tspan><tspan class="cls-7" x="277.52" y="0">b</tspan><tspan class="cls-8" x="327.18" y="0">a</tspan><tspan class="cls-9" x="375.57" y="0">r</tspan><tspan x="417.95" y="0">s</tspan></text></svg>