<svg id="svg3030" xmlns="http://www.w3.org/2000/svg" viewBox="0 0 590.97 590.98"><defs><style>.cls-1{fill:#404137;}.cls-2{fill:#83cd29;}.cls-3,.cls-4,.cls-5{isolation:isolate;}.cls-3,.cls-4{font-size:143.65px;font-family:HelveticaNeue-Light, Helvetica Neue;}.cls-4{letter-spacing:-0.02em;}.cls-5{font-size:112.31px;font-family:MyriadPro-Regular, Myriad Pro;}</style></defs><title>nodejs</title><g id="layer1"><path id="path22" class="cls-1" d="M313.62,3.45a2.44,2.44,0,0,0-2.45,2.43h0V68.37a1.66,1.66,0,0,1-.81,1.47,1.7,1.7,0,0,1-1.71,0L298.43,64a4.89,4.89,0,0,0-4.91,0L252.76,87.49a5,5,0,0,0-2.45,4.33v47a4.89,4.89,0,0,0,2.45,4.25l40.73,23.53a4.88,4.88,0,0,0,4.91,0l40.77-23.53a4.89,4.89,0,0,0,2.45-4.25V21.56a5,5,0,0,0-2.54-4.33L314.81,3.67a2.39,2.39,0,0,0-1.23-.25ZM51.38,62.19a4.61,4.61,0,0,0-2.21.57L8.42,86.26A4.88,4.88,0,0,0,6,90.51l.08,63.15a2.41,2.41,0,0,0,1.23,2.12,2.38,2.38,0,0,0,2.45,0l24.18-13.89a5,5,0,0,0,2.54-4.25V108.15a4.87,4.87,0,0,1,2.45-4.25l10.31-6a4.93,4.93,0,0,1,4.91,0l10.31,6a4.87,4.87,0,0,1,2.45,4.25v29.49a5,5,0,0,0,2.54,4.25l24.17,13.89a2.38,2.38,0,0,0,2.45,0,2.45,2.45,0,0,0,1.23-2.12l.08-63.15a4.86,4.86,0,0,0-2.45-4.25L54.08,62.74a4.58,4.58,0,0,0-2.21-.57h-.49Zm366.29.57a4.87,4.87,0,0,0-2.45.65L374.47,86.92A4.88,4.88,0,0,0,372,91.17v47.05a4.92,4.92,0,0,0,2.54,4.25l40.44,23a4.91,4.91,0,0,0,4.82.08l24.51-13.64a2.47,2.47,0,0,0,1.31-2.12,2.41,2.41,0,0,0-1.23-2.12l-41-23.53a2.64,2.64,0,0,1-1.31-2.21V107.25a2.52,2.52,0,0,1,1.31-2.12l12.72-7.36a2.44,2.44,0,0,1,2.45,0l12.75,7.35a2.44,2.44,0,0,1,1.23,2.12v11.62a2.45,2.45,0,0,0,3.68,2.12l24.42-14.21a4.92,4.92,0,0,0,2.45-4.25V91.2a4.91,4.91,0,0,0-2.45-4.2L420.12,63.43a4.85,4.85,0,0,0-2.45-.65ZM295.81,97.86a1.37,1.37,0,0,1,.65.16l14,8.09a1.27,1.27,0,0,1,.65,1v16.18a1.26,1.26,0,0,1-.65,1l-14,8.09a1.24,1.24,0,0,1-1.23,0l-14-8.09a1.27,1.27,0,0,1-.65-1V107.14a1.27,1.27,0,0,1,.65-1l14-8.09a1,1,0,0,1,.57-.16Z"/><path id="path28" class="cls-2" d="M539.77,61.59a8,8,0,0,0-4,1L497.3,84.84a8.11,8.11,0,0,0-4,7v44.31a8.11,8.11,0,0,0,4,7l10,5.8c4.88,2.4,6.68,2.37,8.9,2.37,7.21,0,11.34-4.39,11.34-12V95.57a1.1,1.1,0,0,0-1.14-1h-4.82a1.09,1.09,0,0,0-1.14,1v43.79c0,3.38-3.52,6.78-9.27,3.93l-10.46-6.13a1.15,1.15,0,0,1-.65-1V91.81a1.3,1.3,0,0,1,.65-1l38.4-22.14a1.13,1.13,0,0,1,1.14,0l38.4,22.14a1.3,1.3,0,0,1,.65,1v44.31a1.24,1.24,0,0,1-.57,1l-38.38,22.22a1.19,1.19,0,0,1-1.14,0l-9.88-5.88a1,1,0,0,0-1,0,25.43,25.43,0,0,1-5.8,2.62c-.63.22-1.59.56.33,1.64l12.9,7.59a8.08,8.08,0,0,0,8,0l38.48-22.14a8.12,8.12,0,0,0,4-7V91.86a8.11,8.11,0,0,0-4-7L543.76,62.61a8,8,0,0,0-4-1Zm-366,.9a4.87,4.87,0,0,0-2.45.65L130.66,86.58a5,5,0,0,0-2.45,4.33V138a4.88,4.88,0,0,0,2.45,4.25l40.77,23.53a4.87,4.87,0,0,0,4.91,0l40.77-23.53a4.89,4.89,0,0,0,2.45-4.25V91a5,5,0,0,0-2.45-4.33L176.33,63.15a4.87,4.87,0,0,0-2.49-.66Zm423.07.25v1.14H600v8.41h1.31V63.88h3.33V62.74Zm8.9,0v9.55H607v-8l2.7,8.09H611l2.78-8.09c0,.52-.07,1-.08,1.47s0,.78,0,1V72.4H615V62.84h-1.79l-2.78,8.09-2.7-8.09h-1.88ZM550,93.28c-11,0-17.52,4.66-17.52,12.37,0,8.41,6.47,10.73,17,11.77,12.58,1.24,13.56,3.09,13.56,5.55,0,4.3-3.42,6.13-11.52,6.13-10.17,0-12.37-2.54-13.15-7.59a1.1,1.1,0,0,0-1-1h-5a1.16,1.16,0,0,0-1.14,1.14c0,6.47,3.52,14.13,20.34,14.13,12.17,0,19.2-4.78,19.2-13.15s-5.67-10.53-17.52-12.09-13.07-2.35-13.07-5.15c0-2.31,1-5.39,9.8-5.39,7.89,0,10.81,1.7,12,7a1.11,1.11,0,0,0,1,.9h5a1.21,1.21,0,0,0,.81-.41,1,1,0,0,0,.33-.81c-.77-9.17-6.88-13.48-19.2-13.48ZM417.61,104.44a1,1,0,0,0-.49.08l-7.84,4.58a1,1,0,0,0-.49.81v9a1,1,0,0,0,.49.81l7.84,4.49a.86.86,0,0,0,.9,0l7.84-4.49a1,1,0,0,0,.49-.81v-9a1,1,0,0,0-.49-.81L418,104.52A.67.67,0,0,0,417.61,104.44Z"/></g><text class="cls-3" transform="translate(0 558.11) scale(1.2 1)">Exp</text><text class="cls-4" transform="translate(284.04 558.11) scale(1.2 1)">r</text><text class="cls-3" transform="translate(335.25 558.11) scale(1.2 1)">ess</text><text class="cls-5" transform="translate(262.68 338.57)">&amp;</text></svg>