<svg id="Layer_1" data-name="Layer 1" xmlns="http://www.w3.org/2000/svg" viewBox="0 0 2500 2504"><defs><style>.cls-1{fill:#53c1de;}.cls-2{fill:#fff;}</style></defs><title>react</title><path class="cls-1" d="M1252.11,1053.42c-108.82,0-197,88.22-197,197s88.22,197,197,197,197-88.22,197-197S1360.93,1053.42,1252.11,1053.42Zm0,0c-108.82,0-197,88.22-197,197s88.22,197,197,197,197-88.22,197-197S1360.93,1053.42,1252.11,1053.42Zm0,0c-108.82,0-197,88.22-197,197s88.22,197,197,197,197-88.22,197-197S1360.93,1053.42,1252.11,1053.42Zm0,0c-108.82,0-197,88.22-197,197s88.22,197,197,197,197-88.22,197-197S1360.93,1053.42,1252.11,1053.42Zm0,0c-108.82,0-197,88.22-197,197s88.22,197,197,197,197-88.22,197-197S1360.93,1053.42,1252.11,1053.42Zm0,0c-108.82,0-197,88.22-197,197s88.22,197,197,197,197-88.22,197-197S1360.93,1053.42,1252.11,1053.42Zm0,0c-108.82,0-197,88.22-197,197s88.22,197,197,197,197-88.22,197-197S1360.93,1053.42,1252.11,1053.42Zm0,0c-108.82,0-197,88.22-197,197s88.22,197,197,197,197-88.22,197-197S1360.93,1053.42,1252.11,1053.42Zm0,0c-108.82,0-197,88.22-197,197s88.22,197,197,197,197-88.22,197-197S1360.93,1053.42,1252.11,1053.42Zm0,0c-108.82,0-197,88.22-197,197s88.22,197,197,197,197-88.22,197-197S1360.93,1053.42,1252.11,1053.42ZM1963.05,907q-35.22-12.08-71-22.38,5.94-24.12,11-48.44c53.76-261,18.61-471.27-101.44-540.49-115.11-66.38-303.36,2.83-493.49,168.29q-28.09,24.51-54.94,50.41-18-17.22-36.56-33.76c-199.26-176.93-399-251.48-518.91-182.06C582.66,365.17,548.6,562.85,597,810.2q7.21,36.75,16.3,73.09c-28.26,8-55.55,16.58-81.66,25.68C298,990.41,148.85,1118.06,148.85,1250.46c0,136.75,160.15,273.91,403.48,357.07q29.59,10.06,59.67,18.65-9.77,39.15-17.34,78.78c-46.15,243.06-10.1,436,104.59,502.21,118.46,68.3,317.28-1.91,510.88-171.14q23-20.07,46-42.44,29.06,28,59.64,54.42c187.53,161.37,372.74,226.54,487.34,160.2,118.4-68.51,156.89-275.84,106.89-528.08q-5.72-28.91-13.23-59,20.94-6.2,41-12.82c253-83.8,417.53-219.29,417.53-357.87C2355.36,1117.58,2201.36,989.07,1963.05,907ZM1370,535.09c162.91-141.78,315.16-197.75,384.53-157.74,73.88,42.61,102.62,214.45,56.2,439.8q-4.57,22-9.93,43.87c-91.53-21.12-190.94-36.84-295-46.61-60.63-86.33-123.45-164.84-186.52-232.78q24.77-23.86,50.72-46.51ZM800.36,1363.56q29.93,57.81,62.55,114.17,33.29,57.48,69.28,113.32c-72.26-8.07-140.42-19-203.35-32.7C748.32,1495.45,772.32,1430.06,800.36,1363.56Zm-.11-221.69c-27.45-65.11-50.94-129.12-70.11-190.93,63-14.09,130.09-25.61,200-34.35Q895,971.38,862.49,1027.76t-62.24,114.11Zm50.11,110.85q43.56-90.67,93.85-177.88h0q50.23-87.16,107-170.33c65.62-5,132.9-7.55,200.92-7.55,68.31,0,135.68,2.61,201.29,7.61q56.13,83,106.31,169.75,50.43,87,95.12,177-44.21,91-94.81,178.61h0q-50.13,87.09-105.85,170.79c-65.47,4.68-133.12,7.09-202.06,7.09-68.66,0-135.46-2.13-199.78-6.3q-57.14-83.46-107.84-171.06-50.45-87-94.15-177.73Zm791.32,224.36q33.29-57.73,64-116.91c29.49,67.22,54.35,132.26,74.1,194.1-64,14.6-133.05,26.36-205.83,35.09q35-55.45,67.73-112.28Zm63.09-335.14q-30.59-58-63.47-114.82-32.36-55.89-67.1-110.35c70.41,8.89,137.86,20.7,201.19,35.16-19,60.95-42.71,124.68-70.62,190ZM1253.16,649.07c43.48,47.09,87,99.69,129.85,156.75q-130.32-6.17-260.79-.06C1165.09,749.23,1209,696.71,1253.16,649.07ZM744.88,380.18c73.83-42.73,237,18.2,409.1,171q16.48,14.65,33.1,30.57c-64.1,68.83-127.45,147.2-188,232.6-103.74,9.58-203.08,25-294.4,45.72q-8.45-33.8-15.17-68C648,580.15,675.58,420.3,744.88,380.18ZM637.29,1535.39q-27.45-7.86-54.47-17c-107.6-36.78-196.45-84.57-257.35-136.72-54.73-46.87-82.36-93.4-82.36-131.16,0-80.34,119.79-182.83,319.57-252.48q37.62-13.06,76-23.9c27.61,89.81,63.83,183.71,107.54,278.67C701.89,1349.12,665.16,1444.52,637.29,1535.39ZM1148.11,1965c-85.62,74.84-171.4,127.92-247,154.63h0c-67.94,24-122,24.68-154.75,5.82-69.61-40.14-98.54-195.11-59.07-403q7-36.86,16.11-73.26c90.38,20,190.42,34.37,297.35,43,61,85.91,125,164.87,189.41,234Q1169.6,1946.2,1148.11,1965Zm107.66-106.54c-44.68-48.21-89.24-101.53-132.76-158.88q63.36,2.49,129.1,2.5,67.46,0,133.19-3c-43,58.48-86.35,111.92-129.53,159.43Zm572.4,131.14c-13.15,70.84-39.57,118.07-72.25,137-69.54,40.25-218.25-12.07-378.61-150.07q-27.59-23.73-55.49-50.58c62.18-68,124.31-147.07,184.95-234.86,106.68-9.46,207.46-24.94,298.85-46.06q6.73,27.24,11.94,53.38c22.08,111.59,25.23,212.41,10.61,291.24Zm80-470.79h0q-18.09,6-37.06,11.6c-27.93-88.41-65.62-182.42-111.73-279.53,44-94.82,80.24-187.62,107.39-275.46q33.85,9.81,65.59,20.7c204.19,70.28,328.74,174.21,328.74,254.29,0,85.35-134.51,196.08-352.91,268.45Zm-656.08-71.36c108.82,0,197-88.22,197-197s-88.21-197-197-197-197,88.22-197,197,88.2,197.05,197,197.05Zm0-394.08c-108.82,0-197,88.22-197,197s88.22,197,197,197,197-88.22,197-197-88.16-197-197-197Zm0,0c-108.82,0-197,88.22-197,197s88.22,197,197,197,197-88.22,197-197-88.16-197-197-197Zm0,0c-108.82,0-197,88.22-197,197s88.22,197,197,197,197-88.22,197-197-88.16-197-197-197Zm0,0c-108.82,0-197,88.22-197,197s88.22,197,197,197,197-88.22,197-197-88.16-197-197-197Zm0,0c-108.82,0-197,88.22-197,197s88.22,197,197,197,197-88.22,197-197-88.16-197-197-197Zm0,0c-108.82,0-197,88.22-197,197s88.22,197,197,197,197-88.22,197-197-88.16-197-197-197Zm0,0c-108.82,0-197,88.22-197,197s88.22,197,197,197,197-88.22,197-197-88.16-197-197-197Zm0,0c-108.82,0-197,88.22-197,197s88.22,197,197,197,197-88.22,197-197-88.16-197-197-197Zm0,0c-108.82,0-197,88.22-197,197s88.22,197,197,197,197-88.22,197-197-88.16-197-197-197Zm0,0c-108.82,0-197,88.22-197,197s88.22,197,197,197,197-88.22,197-197-88.16-197-197-197Z"/><path class="cls-2" d="M1252.11,1053.42c-108.82,0-197,88.22-197,197s88.22,197,197,197,197-88.22,197-197S1360.93,1053.42,1252.11,1053.42Z"/><ellipse class="cls-1" cx="1252.11" cy="1250.46" rx="197.03" ry="197.04"/></svg>