<svg id="Layer_1" data-name="Layer 1" xmlns="http://www.w3.org/2000/svg" viewBox="0 0 1035.1 1052.8"><defs><style>.cls-1{fill:#5b5b5b;}.cls-1,.cls-5{stroke:#9bc3c8;}.cls-1,.cls-2,.cls-3,.cls-4,.cls-5{stroke-miterlimit:10;}.cls-2,.cls-3,.cls-4{stroke:#000;}.cls-2{stroke-width:0.9px;}.cls-4{stroke-width:0.75px;}.cls-5{fill:none;stroke-width:2px;}</style></defs><title>react_pan</title><path d="M945.31,988.81a26,26,0,1,1,26-26A26,26,0,0,1,945.31,988.81Zm63.51-23.35L662.89,619.53l-30.2-30.2-8.62-8.62a12,12,0,0,0-17,0l-43.87,43.87a12,12,0,0,0,0,17l8,8,30.82,30.83L948,1026.3a12,12,0,0,0,17,0l43.87-43.87A12,12,0,0,0,1008.82,965.46Z"/><rect x="542.51" y="589.46" width="129.82" height="70.87" rx="12" ry="12" transform="translate(-263.96 612.54) rotate(-45)"/><circle class="cls-1" cx="357.04" cy="374.52" r="75.17"/><path class="cls-2" d="M337.63,381a114.54,114.54,0,0,0-5.48,14.21c-.92-.27-1.84-.55-2.74-.85a40.2,40.2,0,0,1-12.94-6.88c-2.75-2.36-4.14-4.7-4.14-6.6,0-4,6-9.2,16.06-12.7,1.26-.43,2.54-.84,3.83-1.2A112.29,112.29,0,0,0,337.63,381Z"/><path class="cls-3" d="M345.52,368.45q-1.81,3.15-3.48,6.38c-1.53-3.64-2.84-7.21-3.91-10.67,3.52-.79,7.27-1.43,11.17-1.92Q347.34,365.3,345.52,368.45Z"/><path class="cls-3" d="M338.05,398.1c1.09-3.51,2.43-7.17,4-10.88,1.12,2.15,2.28,4.28,3.5,6.38s2.53,4.25,3.87,6.33A110.88,110.88,0,0,1,338.05,398.1Z"/><path class="cls-2" d="M352.85,406.71a114.81,114.81,0,0,0,9.52,11.76c-.69.68-1.39,1.32-2.11,2a40.14,40.14,0,0,1-12.42,7.78,15,15,0,0,1-4.86,1,5.88,5.88,0,0,1-2.93-.67c-3.5-2-4.95-9.82-3-20.27.23-1.23.5-2.47.81-3.68A111.79,111.79,0,0,0,352.85,406.71Z"/><path class="cls-2" d="M337.2,354.28c-2.09-10.66-.7-18.69,2.78-20.71,3.72-2.15,11.92.92,20.57,8.6.55.49,1.11,1,1.66,1.53a115.48,115.48,0,0,0-9.46,11.7A116,116,0,0,0,338,357.7C337.67,356.58,337.42,355.43,337.2,354.28Z"/><path class="cls-3" d="M360,356.05c2.4-3.16,4.85-6.09,7.32-8.76,2.43,2.64,4.86,5.57,7.26,8.76Q367.32,355.71,360,356.05Z"/><path class="cls-3" d="M374.73,406a110.16,110.16,0,0,1-7.23,8.91c-2.5-2.7-5-5.67-7.42-8.88q3.54.14,7.21.14C369.8,406.13,372.29,406.07,374.73,406Z"/><path class="cls-2" d="M382.76,372.05q-2.52-4.37-5.35-8.54c-3.3-.25-6.69-.38-10.12-.38s-6.8.13-10.1.38q-2.86,4.18-5.38,8.56T347.09,381q2.2,4.56,4.74,8.94t5.42,8.6c3.23.21,6.6.31,10,.31s6.87-.12,10.16-.35q2.81-4.21,5.33-8.6t4.76-9Q385.3,376.42,382.76,372.05Zm-5.7,10.45a7.18,7.18,0,0,1-.15.77,2.43,2.43,0,0,1-.06.24c0,.12-.06.23-.1.34s-.06.2-.1.3a9.75,9.75,0,0,1-2.36,3.76,9.41,9.41,0,0,1-.7.64,3.05,3.05,0,0,1-.38.3c-.2.15-.41.3-.63.43s-.38.23-.57.33h0a4.75,4.75,0,0,1-.42.22,3.92,3.92,0,0,1-.44.2,9.94,9.94,0,0,1-3.85.77,10.32,10.32,0,0,1-1.82-.17l-.37-.08-.56-.14-.38-.12c-.25-.08-.49-.16-.72-.26a3.92,3.92,0,0,1-.44-.2,4.75,4.75,0,0,1-.42-.22h0c-.19-.11-.39-.22-.57-.33s-.43-.28-.63-.43a3.05,3.05,0,0,1-.38-.3,9.41,9.41,0,0,1-.7-.64,9.75,9.75,0,0,1-2.36-3.76c0-.1-.07-.2-.1-.3s-.07-.22-.1-.34a2.43,2.43,0,0,1-.06-.24,7.18,7.18,0,0,1-.15-.77,9.35,9.35,0,0,1-.14-1.59c0-.22,0-.43,0-.65s0-.24,0-.37c0-.28.06-.56.12-.84,0-.11,0-.22.07-.32a.21.21,0,0,1,0-.07,1,1,0,0,1,.05-.23h0a1.63,1.63,0,0,1,.06-.22.13.13,0,0,1,0-.05,2.46,2.46,0,0,1,.07-.24l.08-.24a9.77,9.77,0,0,1,1.14-2.3l.14-.19.13-.19h0l.16-.21.14-.17c.05-.06.11-.12.15-.18l.15-.17s0,0,0,0l.12-.12.22-.22.17-.17.17-.16.36-.31.05,0,0,0,.09-.07.09-.06h0l.1-.07.11-.08.05,0a.08.08,0,0,1,0,0l.39-.26a8,8,0,0,1,.85-.5l.08,0,.19-.09.35-.15.11,0,.39-.15.13,0a5.16,5.16,0,0,1,.53-.17.18.18,0,0,1,.1,0h0l.09,0,.41-.1.13,0,.33-.05.1,0,.49-.06h0l.35,0H368l.35,0h0l.48.06.1,0,.33.05.13,0,.41.1.09,0h0a.18.18,0,0,1,.1,0,5.16,5.16,0,0,1,.53.17l.13,0,.39.15.11,0,.35.15.19.09.08,0a8,8,0,0,1,.85.5l.39.26a.08.08,0,0,1,0,0l.05,0,.11.08.1.07h0l.09.06.09.07,0,0,.05,0,.36.31.17.16.17.17.22.22.12.12s0,0,0,0l.15.17.15.18.14.17.16.21h0l.28.38a9.57,9.57,0,0,1,.75,1.33,3.06,3.06,0,0,1,.16.35h0c.06.14.13.29.18.44l.05.16.08.24a2.46,2.46,0,0,1,.07.24.13.13,0,0,1,0,.05,2.08,2.08,0,0,1,.06.22h0a1,1,0,0,1,.05.23.21.21,0,0,1,0,.07c0,.11,0,.22.07.32.05.28.09.56.12.84,0,.13,0,.25,0,.37s0,.43,0,.65A9.35,9.35,0,0,1,377.07,382.5Z"/><path class="cls-3" d="M396.53,364.22a112,112,0,0,1-4,10.61q-1.71-3.24-3.54-6.41t-3.75-6.17C389.22,362.75,393,363.41,396.53,364.22Z"/><path class="cls-3" d="M389.06,393.56q1.86-3.23,3.57-6.53a110.29,110.29,0,0,1,4.14,10.84,110.86,110.86,0,0,1-11.5,2Q387.24,396.74,389.06,393.56Z"/><path class="cls-2" d="M381.86,355.4a110.57,110.57,0,0,0-9.39-11.7c.84-.8,1.68-1.58,2.56-2.34,8.19-7.14,15.85-9.95,19.33-7.94,3.72,2.14,5.17,10.78,2.83,22.12-.15.74-.32,1.47-.5,2.21A114.16,114.16,0,0,0,381.86,355.4Z"/><path class="cls-2" d="M397.56,407a40.14,40.14,0,0,1,.53,14.64c-.67,3.55-2,5.93-3.64,6.89-3.49,2-11-.6-19-7.54-.93-.8-1.85-1.65-2.79-2.55a112.53,112.53,0,0,0,9.3-11.81,110.93,110.93,0,0,0,15-2.32C397.18,405.24,397.38,406.13,397.56,407Z"/><path class="cls-2" d="M397,380.93a112.93,112.93,0,0,0,5.4-13.85c1.13.32,2.23.67,3.29,1,10.27,3.53,16.53,8.76,16.53,12.78,0,4.29-6.77,9.86-17.75,13.5l-1.86.58A112.24,112.24,0,0,0,397,380.93Z"/><path class="cls-4" d="M367.29,42.89c-186.67,0-338,151.33-338,338s151.33,338,338,338A336.34,336.34,0,0,0,553.1,663.27q9.29-6.1,18.13-12.83a339.88,339.88,0,0,0,61.46-60.22q6.84-8.69,13.14-17.81a336.37,336.37,0,0,0,59.46-191.52C705.29,194.22,554,42.89,367.29,42.89ZM336.4,434.24c-6.41-3.7-8.42-14.48-5.84-28.06.28-1.47.6-2.94,1-4.4-1.12-.32-2.24-.67-3.34-1-13.59-4.65-22.54-12.31-22.54-20,0-7.4,8.33-14.53,21.39-19.08q2.19-.77,4.56-1.44c-.34-1.35-.64-2.71-.91-4.08-2.71-13.82-.8-24.87,5.63-28.59,6.7-3.88,17.86.29,29,10.17q1,.93,2,1.89c1-1,2-1.9,3.07-2.82,10.62-9.24,21.14-13.11,27.57-9.4,6.71,3.87,8.68,15.62,5.67,30.2-.19.91-.39,1.81-.61,2.71,1.33.38,2.65.8,4,1.25,13.32,4.58,21.92,11.76,21.92,19.19,0,7.74-9.19,15.31-23.33,20-.74.25-1.51.49-2.29.72.28,1.12.53,2.22.74,3.29,2.79,14.1.64,25.68-6,29.51-6.4,3.71-16.75.07-27.23-8.95q-1.71-1.48-3.33-3c-.86.83-1.72,1.62-2.57,2.37C354.13,434.14,343,438.06,336.4,434.24Z"/><circle class="cls-5" cx="367.14" cy="381.56" r="290.99"/></svg>