<svg id="Layer_1" data-name="Layer 1" xmlns="http://www.w3.org/2000/svg" xmlns:xlink="http://www.w3.org/1999/xlink" viewBox="0 0 178.82 178.82"><defs><style>.cls-1{fill:#494949;stroke:#000;stroke-miterlimit:10;}.cls-2{fill:url(#linear-gradient);}.cls-3{fill:#ff9800;}</style><linearGradient id="linear-gradient" x1="-761.51" y1="655.67" x2="-760.51" y2="655.67" gradientTransform="matrix(9.32, -31.15, -26.36, -10.78, 24468.34, -16518.83)" gradientUnits="userSpaceOnUse"><stop offset="0" stop-color="#ff9700"/><stop offset="0.53" stop-color="#f48e00"/><stop offset="1" stop-color="#ce6e00"/></linearGradient></defs><title>sublime</title><rect class="cls-1" width="178.82" height="178.82" rx="12" ry="12"/><path class="cls-2" d="M146.09,89.83a2,2,0,0,0-2.73-2.14L40,120.46a4.26,4.26,0,0,0-2.73,3.86v33.49A2,2,0,0,0,40,159.94l103.33-32.76a4.27,4.27,0,0,0,2.73-3.87Z"/><path class="cls-3" d="M37.31,88.76A4.26,4.26,0,0,0,40,92.63L143.38,125.4a2,2,0,0,0,2.73-2.13V89.77a4.26,4.26,0,0,0-2.73-3.86L40,53.14a2,2,0,0,0-2.73,2.13Z"/><path class="cls-3" d="M146.09,21a2,2,0,0,0-2.73-2.14L40,51.64a4.26,4.26,0,0,0-2.73,3.87V89A2,2,0,0,0,40,91.13L143.36,58.36a4.27,4.27,0,0,0,2.73-3.86Z"/></svg>